<svg width="206" height="66" viewBox="0 0 206 66" fill="none" xmlns="http://www.w3.org/2000/svg">
<path d="M109.131 56.6875C103.169 56.6875 98.3187 51.8376 98.3187 45.8784H89.4319C89.4319 56.8423 98.1616 65.7641 109.131 65.7641V56.6875Z" fill="#FCFFEC"/>
<path d="M49.918 10.2155C46.7895 10.2155 44.2429 12.7748 44.2429 15.9221C44.2429 19.0693 46.7895 21.6286 49.918 21.6286C53.0471 21.6286 55.5937 19.0693 55.5937 15.9221C55.5937 12.7748 53.0474 10.2155 49.918 10.2155Z" fill="#FCFFEC"/>
<path d="M120.096 26.0466V29.2972C116.95 27.2113 113.18 25.9918 109.131 25.9918C98.1613 25.9918 89.239 34.913 89.239 45.878L89.2419 46.2836C89.0282 52.0556 84.2646 56.6871 78.4379 56.6871C72.4755 56.6871 67.6264 51.8372 67.6264 45.878C67.6264 39.9177 72.4755 35.0678 78.4379 35.0678H79.8574V25.9918H78.4379C67.4692 25.9918 58.5461 34.913 58.5461 45.878C58.5461 56.842 67.4695 65.7638 78.4379 65.7638C89.4058 65.7638 98.3286 56.842 98.3286 45.878L98.3249 45.4714C98.5394 39.7002 103.305 35.0678 109.131 35.0678C115.095 35.0678 119.943 39.9177 119.943 45.878C119.943 51.8372 115.095 56.6871 109.131 56.6871H108.879V65.7638H109.131C113.18 65.7638 116.95 64.544 120.096 62.4586L120.078 65.997H129.338L129.356 26.0463L120.096 26.0466Z" fill="#FCFFEC"/>
<path d="M54.6734 26.0602H45.4138V65.9867H54.6734V26.0602Z" fill="#FCFFEC"/>
<path d="M0.509766 48.1497V65.9829H9.6263V39.123L0.509766 48.1497Z" fill="#FCFFEC"/>
<path d="M21.9551 26.61H17.8718C12.396 26.61 9.12721 23.3421 9.12721 17.8658V0L0 9.12246V20.5268C0 31.0158 5.5989 36.113 17.1119 36.113H21.8027C26.3633 36.113 31.6887 38.7018 31.6887 45.9974V66H40.979V45.6317C40.9787 32.8789 34.7093 26.61 21.9551 26.61Z" fill="#FCFFEC"/>
<path d="M178.458 54.9974L202.876 38.9669C202.358 37.5262 201.665 36.1215 200.785 34.789C194.737 25.5958 182.332 23.0396 173.14 29.0864C171.392 30.2357 169.886 31.6157 168.632 33.1578C164.98 28.7823 159.489 25.9918 153.355 25.9918C149.39 25.9918 145.696 27.1626 142.59 29.1702V26.0592H133.329V65.992H142.59V44.9671C143.055 39.4329 147.702 35.0681 153.355 35.0681C159.255 35.0681 164.057 39.8168 164.16 45.6892C164.142 49.4845 165.199 53.3243 167.437 56.7239C173.487 65.9169 185.891 68.474 195.083 62.4257L190.075 54.8187C186.458 57.1975 181.933 57.1157 178.458 54.9974ZM178.148 36.696C181.874 34.2455 186.565 34.397 190.076 36.7016L173.432 47.6484C172.704 43.5149 174.422 39.1457 178.148 36.696Z" fill="#FCFFEC"/>
<path d="M199.457 48.9491C196.33 48.9491 193.782 51.5092 193.782 54.6564C193.782 57.8023 196.33 60.3621 199.457 60.3621C202.586 60.3621 205.133 57.8026 205.133 54.6564C205.133 51.5095 202.586 48.9491 199.457 48.9491Z" fill="#FCFFEC"/>
</svg>
