<svg width="17" height="17" viewBox="0 0 17 17" fill="none" xmlns="http://www.w3.org/2000/svg">
<rect width="17" height="17" fill="white"/>
<path d="M7.79163 10.625H9.20829V12.0417H7.79163V10.625ZM7.79163 4.95833H9.20829V9.20833H7.79163V4.95833ZM8.49288 1.41666C4.58288 1.41666 1.41663 4.59 1.41663 8.5C1.41663 12.41 4.58288 15.5833 8.49288 15.5833C12.41 15.5833 15.5833 12.41 15.5833 8.5C15.5833 4.59 12.41 1.41666 8.49288 1.41666ZM8.49996 14.1667C5.36913 14.1667 2.83329 11.6308 2.83329 8.5C2.83329 5.36916 5.36913 2.83333 8.49996 2.83333C11.6308 2.83333 14.1666 5.36916 14.1666 8.5C14.1666 11.6308 11.6308 14.1667 8.49996 14.1667Z" fill="#1B2B41" fill-opacity="0.72"/>
</svg>
