<svg width="21" height="21" viewBox="0 0 21 21" fill="none" xmlns="http://www.w3.org/2000/svg">
<path d="M19.8333 11.6667H1.16667C0.525 11.6667 0 12.1917 0 12.8333V19.8333C0 20.475 0.525 21 1.16667 21H19.8333C20.475 21 21 20.475 21 19.8333V12.8333C21 12.1917 20.475 11.6667 19.8333 11.6667ZM4.66667 18.6667C3.38333 18.6667 2.33333 17.6167 2.33333 16.3333C2.33333 15.05 3.38333 14 4.66667 14C5.95 14 7 15.05 7 16.3333C7 17.6167 5.95 18.6667 4.66667 18.6667ZM19.8333 0H1.16667C0.525 0 0 0.525 0 1.16667V8.16667C0 8.80833 0.525 9.33333 1.16667 9.33333H19.8333C20.475 9.33333 21 8.80833 21 8.16667V1.16667C21 0.525 20.475 0 19.8333 0ZM4.66667 7C3.38333 7 2.33333 5.95 2.33333 4.66667C2.33333 3.38333 3.38333 2.33333 4.66667 2.33333C5.95 2.33333 7 3.38333 7 4.66667C7 5.95 5.95 7 4.66667 7Z" fill="#1676F3"/>
</svg>
