<svg width="65" height="59" viewBox="0 0 65 59" fill="none" xmlns="http://www.w3.org/2000/svg">
<path d="M48.308 36.9608H45.7083L44.7869 36.0723C48.0118 32.3209 49.9533 27.4506 49.9533 22.1525C49.9533 10.3388 40.3773 0.762726 28.5635 0.762726C17.3092 0.762726 8.09515 9.45027 7.27246 20.5072H13.9198C14.7424 13.103 20.929 7.3442 28.5635 7.3442C36.7575 7.3442 43.3719 13.9586 43.3719 22.1525C43.3719 30.3465 36.7575 36.9608 28.5635 36.9608C28.0041 36.9608 27.4776 36.8621 26.9182 36.7963V43.4436C27.4776 43.5094 28.0041 43.5423 28.5635 43.5423C33.8616 43.5423 38.7319 41.6008 42.4834 38.3759L43.3719 39.2973V41.897L59.8256 58.3177L64.7287 53.4145L48.308 36.9608Z" fill="black"/>
<path d="M18.5927 26.4963L10.4645 34.6244L2.33642 26.4963L0 28.8327L8.12812 36.9608L0 45.089L2.33642 47.4254L10.4645 39.2973L18.5927 47.4254L20.9291 45.089L12.801 36.9608L20.9291 28.8327L18.5927 26.4963Z" fill="black"/>
</svg>
