<svg width="29" height="34" viewBox="0 0 29 34" fill="none" xmlns="http://www.w3.org/2000/svg">
<path d="M25.1928 3.97634H18.6112C17.9499 2.10347 16.2179 0.747253 14.171 0.747253C12.1241 0.747253 10.3921 2.10347 9.73074 3.97634H3.14911C1.4171 3.97634 0 5.42943 0 7.20543V29.809C0 31.585 1.4171 33.0381 3.14911 33.0381H25.1928C26.9249 33.0381 28.342 31.585 28.342 29.809V7.20543C28.342 5.42943 26.9249 3.97634 25.1928 3.97634ZM14.171 3.97634C15.037 3.97634 15.7455 4.70288 15.7455 5.59088C15.7455 6.47888 15.037 7.20543 14.171 7.20543C13.305 7.20543 12.5964 6.47888 12.5964 5.59088C12.5964 4.70288 13.305 3.97634 14.171 3.97634ZM14.171 10.4345C16.7847 10.4345 18.8946 12.598 18.8946 15.2781C18.8946 17.9583 16.7847 20.1218 14.171 20.1218C11.5572 20.1218 9.44732 17.9583 9.44732 15.2781C9.44732 12.598 11.5572 10.4345 14.171 10.4345ZM23.6183 29.809H4.72366V27.5487C4.72366 24.3196 11.0219 22.5436 14.171 22.5436C17.3201 22.5436 23.6183 24.3196 23.6183 27.5487V29.809Z" fill="white"/>
</svg>
