<svg width="12" height="12" viewBox="0 0 12 12" fill="none" xmlns="http://www.w3.org/2000/svg">
<path d="M2.41333 5.19711C3.37333 7.08273 4.92 8.62188 6.80667 9.58801L8.27333 8.12215C8.45333 7.94225 8.72 7.88229 8.95333 7.96224C9.7 8.20877 10.5067 8.34203 11.3333 8.34203C11.7 8.34203 12 8.64187 12 9.00833V11.3337C12 11.7002 11.7 12 11.3333 12C5.07333 12 0 6.92948 0 0.672959C0 0.306496 0.3 0.00666296 0.666667 0.00666296H3C3.36667 0.00666296 3.66667 0.306496 3.66667 0.672959C3.66667 1.50583 3.8 2.30539 4.04667 3.05164C4.12 3.28484 4.06667 3.5447 3.88 3.73126L2.41333 5.19711ZM11.44 0.466408L10.9667 0L6.66667 4.19767V1.33926H6V5.33704H10V4.67074H7.23333L11.44 0.466408Z" fill="#2BC931"/>
</svg>
