<svg width="22" height="27" viewBox="0 0 22 27" fill="none" xmlns="http://www.w3.org/2000/svg">
<path d="M7.21384 10.6477H7.29474C7.59139 10.6477 7.85163 10.614 8.07547 10.5466C8.2993 10.4765 8.48673 10.3726 8.63776 10.2351C8.79147 10.0949 8.90744 9.92091 8.98564 9.71325C9.06385 9.5029 9.10296 9.2548 9.10296 8.96893V7.80391C9.10296 7.60165 9.08408 7.42636 9.04632 7.27803C9.01126 7.12701 8.95868 7.00161 8.88856 6.90183C8.81844 6.80204 8.73619 6.72788 8.6418 6.67934C8.54741 6.6308 8.44358 6.60652 8.33032 6.60652C8.21166 6.60652 8.10648 6.63754 8.01479 6.69956C7.9258 6.76159 7.84894 6.84519 7.78421 6.95037C7.71949 7.05554 7.67095 7.1742 7.63859 7.30635C7.60622 7.43849 7.59004 7.57333 7.59004 7.71087C7.59004 7.85919 7.60622 7.99808 7.63859 8.12753C7.67364 8.25697 7.72354 8.37024 7.78826 8.46733C7.85298 8.56441 7.93524 8.64127 8.03502 8.6979C8.1348 8.75184 8.25076 8.77881 8.38291 8.77881C8.51505 8.77881 8.62966 8.75454 8.72675 8.70599C8.82653 8.65745 8.91013 8.59273 8.97755 8.51182C9.04767 8.43092 9.10026 8.34327 9.13532 8.24888C9.17038 8.1518 9.18791 8.05606 9.18791 7.96167L9.57625 8.22057C9.57625 8.40125 9.53579 8.57924 9.45489 8.75454C9.37668 8.92983 9.26746 9.08894 9.12723 9.23187C8.98699 9.3748 8.82384 9.48942 8.63776 9.57572C8.45437 9.65932 8.25885 9.70112 8.0512 9.70112C7.78152 9.70112 7.5388 9.65258 7.32306 9.55549C7.11001 9.45841 6.92932 9.32222 6.781 9.14692C6.63267 8.96893 6.51941 8.75858 6.4412 8.51587C6.36299 8.27316 6.32389 8.00617 6.32389 7.71492C6.32389 7.42905 6.37243 7.16072 6.46952 6.90992C6.5666 6.65642 6.70414 6.43393 6.88213 6.24245C7.06012 6.05098 7.27182 5.89996 7.51723 5.78939C7.76534 5.67882 8.03906 5.62354 8.33841 5.62354C8.63236 5.62354 8.90204 5.68017 9.14745 5.79343C9.39286 5.904 9.60726 6.06312 9.79064 6.27077C9.97403 6.47843 10.1156 6.73058 10.2154 7.02723C10.3179 7.32388 10.3691 7.65828 10.3691 8.03044V8.46733C10.3691 8.86646 10.3233 9.23322 10.2316 9.56763C10.1399 9.90203 10.005 10.1987 9.82705 10.4576C9.65176 10.7165 9.43871 10.9363 9.18791 11.1169C8.9398 11.2976 8.65798 11.4352 8.34245 11.5296C8.02962 11.6213 7.68713 11.6671 7.31497 11.6671H7.21384V10.6477Z" fill="#C1A9EB"/>
<path d="M11.9953 10.6477H12.0762C12.3728 10.6477 12.6331 10.614 12.8569 10.5466C13.0808 10.4765 13.2682 10.3726 13.4192 10.2351C13.5729 10.0949 13.6889 9.92091 13.7671 9.71325C13.8453 9.5029 13.8844 9.2548 13.8844 8.96893V7.80391C13.8844 7.60165 13.8655 7.42636 13.8278 7.27803C13.7927 7.12701 13.7401 7.00161 13.67 6.90183C13.5999 6.80204 13.5176 6.72788 13.4233 6.67934C13.3289 6.6308 13.225 6.60652 13.1118 6.60652C12.9931 6.60652 12.8879 6.63754 12.7962 6.69956C12.7072 6.76159 12.6304 6.84519 12.5657 6.95037C12.5009 7.05554 12.4524 7.1742 12.42 7.30635C12.3877 7.43849 12.3715 7.57333 12.3715 7.71087C12.3715 7.85919 12.3877 7.99808 12.42 8.12753C12.4551 8.25697 12.505 8.37024 12.5697 8.46733C12.6344 8.56441 12.7167 8.64127 12.8165 8.6979C12.9163 8.75184 13.0322 8.77881 13.1644 8.77881C13.2965 8.77881 13.4111 8.75454 13.5082 8.70599C13.608 8.65745 13.6916 8.59273 13.759 8.51182C13.8291 8.43092 13.8817 8.34327 13.9168 8.24888C13.9518 8.1518 13.9694 8.05606 13.9694 7.96167L14.3577 8.22057C14.3577 8.40125 14.3172 8.57924 14.2363 8.75454C14.1581 8.92983 14.0489 9.08894 13.9087 9.23187C13.7684 9.3748 13.6053 9.48942 13.4192 9.57572C13.2358 9.65932 13.0403 9.70112 12.8327 9.70112C12.563 9.70112 12.3203 9.65258 12.1045 9.55549C11.8915 9.45841 11.7108 9.32222 11.5625 9.14692C11.4141 8.96893 11.3009 8.75858 11.2227 8.51587C11.1444 8.27316 11.1053 8.00617 11.1053 7.71492C11.1053 7.42905 11.1539 7.16072 11.251 6.90992C11.3481 6.65642 11.4856 6.43393 11.6636 6.24245C11.8416 6.05098 12.0533 5.89996 12.2987 5.78939C12.5468 5.67882 12.8205 5.62354 13.1199 5.62354C13.4138 5.62354 13.6835 5.68017 13.9289 5.79343C14.1743 5.904 14.3887 6.06312 14.5721 6.27077C14.7555 6.47843 14.8971 6.73058 14.9968 7.02723C15.0993 7.32388 15.1506 7.65828 15.1506 8.03044V8.46733C15.1506 8.86646 15.1047 9.23322 15.013 9.56763C14.9213 9.90203 14.7865 10.1987 14.6085 10.4576C14.4332 10.7165 14.2202 10.9363 13.9694 11.1169C13.7213 11.2976 13.4394 11.4352 13.1239 11.5296C12.8111 11.6213 12.4686 11.6671 12.0964 11.6671H11.9953V10.6477Z" fill="#C1A9EB"/>
<path d="M8.14019 19.2907V20.2697H3.9008L3.83203 19.5011L6.24298 15.65H7.24215L6.15803 17.4461L5.06178 19.2907H8.14019ZM7.50914 15.65V21.5399H6.24703V15.65H7.50914Z" fill="#C1A9EB"/>
<path d="M9.89177 18.8862L8.88856 18.6475L9.2324 15.65H12.6061V16.6492H10.268L10.1264 17.8911C10.1992 17.8479 10.3138 17.8007 10.4702 17.7495C10.6267 17.6956 10.8019 17.6686 10.9961 17.6686C11.2847 17.6686 11.5409 17.7131 11.7647 17.8021C11.9885 17.8911 12.1773 18.0205 12.331 18.1904C12.4875 18.3576 12.6048 18.5639 12.683 18.8093C12.7639 19.0548 12.8043 19.3339 12.8043 19.6467C12.8043 19.9056 12.7639 20.1537 12.683 20.391C12.6021 20.6256 12.478 20.836 12.3108 21.0221C12.1463 21.2055 11.9373 21.3511 11.6838 21.459C11.4303 21.5668 11.1323 21.6208 10.7898 21.6208C10.5309 21.6208 10.2801 21.5817 10.0374 21.5035C9.79469 21.4253 9.57625 21.312 9.38208 21.1637C9.1906 21.0126 9.03823 20.8293 8.92497 20.6135C8.8144 20.3978 8.75776 20.1551 8.75507 19.8854H10.0172C10.0307 20.0418 10.0698 20.1766 10.1345 20.2899C10.1992 20.4005 10.2869 20.4868 10.3974 20.5488C10.508 20.6081 10.6361 20.6378 10.7817 20.6378C10.922 20.6378 11.0406 20.6108 11.1377 20.5569C11.2348 20.5002 11.3116 20.4234 11.3683 20.3263C11.4276 20.2292 11.4708 20.1159 11.4977 19.9865C11.5247 19.8571 11.5382 19.7182 11.5382 19.5698C11.5382 19.4161 11.5207 19.2786 11.4856 19.1572C11.4505 19.0332 11.3966 18.928 11.3238 18.8417C11.251 18.7527 11.1579 18.6853 11.0447 18.6394C10.9341 18.5909 10.8006 18.5666 10.6442 18.5666C10.4392 18.5666 10.2788 18.6003 10.1628 18.6678C10.0468 18.7352 9.9565 18.808 9.89177 18.8862Z" fill="#C1A9EB"/>
<path d="M17.7031 19.2907V20.2697H13.4637L13.3949 19.5011L15.8059 15.65H16.8051L15.7209 17.4461L14.6247 19.2907H17.7031ZM17.072 15.65V21.5399H15.8099V15.65H17.072Z" fill="#C1A9EB"/>
<path d="M18.668 0H2.872C1.2924 0 0 1.34625 0 2.99167V23.9333C0 25.5787 1.2924 26.925 2.872 26.925H18.668C20.2476 26.925 21.54 25.5787 21.54 23.9333V2.99167C21.54 1.34625 20.2476 0 18.668 0ZM18.668 23.9333H2.872V2.99167H18.668V23.9333Z" fill="#C1A9EB"/>
</svg>
