<svg width="23" height="26" viewBox="0 0 23 26" fill="none" xmlns="http://www.w3.org/2000/svg">
<path d="M20.7 2.53987H19.55V0.239868H17.25V2.53987H5.75V0.239868H3.45V2.53987H2.3C1.035 2.53987 0 3.57487 0 4.83987V23.2399C0 24.5049 1.035 25.5399 2.3 25.5399H20.7C21.965 25.5399 23 24.5049 23 23.2399V4.83987C23 3.57487 21.965 2.53987 20.7 2.53987ZM20.7 23.2399H2.3V8.28987H20.7V23.2399Z" fill="white"/>
<path d="M8.99085 18.7772L5.69767 15.5332L4.59995 16.6145L8.99085 20.9399L18.3999 11.6712L17.3022 10.5899L8.99085 18.7772Z" fill="white" stroke="white"/>
</svg>
