<svg width="22" height="20" viewBox="0 0 22 20" fill="none" xmlns="http://www.w3.org/2000/svg">
<path d="M0.233748 2.0125C2.46514 5.25 6.58548 11.25 6.58548 11.25V18.75C6.58548 19.4375 7.08257 20 7.69013 20H9.89942C10.507 20 11.0041 19.4375 11.0041 18.75V11.25C11.0041 11.25 15.1134 5.25 17.3448 2.0125C17.9081 1.1875 17.3889 0 16.4721 0H1.10642C0.189562 0 -0.329623 1.1875 0.233748 2.0125Z" fill="#5C718D"/>
<path d="M20.3606 10.4L17.6321 13.4875L14.9036 10.4L14.1193 11.2875L16.8478 14.375L14.1193 17.4625L14.9036 18.35L17.6321 15.2625L20.3606 18.35L21.1449 17.4625L18.4164 14.375L21.1449 11.2875L20.3606 10.4Z" fill="#5C718D"/>
</svg>
