<svg width="22" height="27" viewBox="0 0 22 27" fill="none" xmlns="http://www.w3.org/2000/svg">
<path d="M13.4615 0H2.69231C1.21154 0 0.0134618 1.21154 0.0134618 2.69231L0 24.2308C0 25.7115 1.19808 26.9231 2.67885 26.9231H18.8462C20.3269 26.9231 21.5385 25.7115 21.5385 24.2308V8.07692L13.4615 0ZM18.8462 24.2308H2.69231V2.69231H12.1154V9.42308H18.8462V24.2308Z" fill="#C1A9EB"/>
<path d="M13.3465 9.94083V11.2663H8.19202V9.94083H6.9034V11.2663H6.25908C5.5439 11.2663 4.9769 11.8627 4.9769 12.5917L4.97046 21.8698C4.97046 22.5988 5.5439 23.1953 6.25908 23.1953H15.2795C15.9882 23.1953 16.5681 22.5988 16.5681 21.8698V12.5917C16.5681 11.8627 15.9882 11.2663 15.2795 11.2663H14.6352V9.94083H13.3465ZM15.2795 21.8698H6.25908V14.5799H15.2795V21.8698Z" fill="#C1A9EB"/>
<path d="M10.6879 16.8773C10.6879 17.103 10.6409 17.2971 10.5468 17.4597C10.4527 17.6222 10.3273 17.7576 10.1705 17.866C10.0137 17.9698 9.83675 18.0465 9.63964 18.0962V18.1165C10.0249 18.1617 10.3183 18.279 10.5199 18.4686C10.726 18.6582 10.8291 18.9178 10.8291 19.2474C10.8291 19.5182 10.7596 19.7665 10.6207 19.9923C10.4819 20.2135 10.2668 20.3895 9.97563 20.5205C9.68892 20.6469 9.31709 20.7101 8.86014 20.7101C8.5779 20.7101 8.32479 20.6875 8.10079 20.6423C7.8768 20.5972 7.66176 20.5317 7.45569 20.446V19.4776C7.66624 19.586 7.88128 19.6672 8.10079 19.7214C8.32479 19.7711 8.53086 19.7959 8.71902 19.7959C9.05949 19.7959 9.29469 19.7417 9.4246 19.6334C9.559 19.525 9.6262 19.3715 9.6262 19.1729C9.6262 19.051 9.59484 18.9472 9.53212 18.8614C9.4694 18.7756 9.35964 18.7102 9.20285 18.665C9.04605 18.6199 8.82206 18.5973 8.53086 18.5973H8.20159V17.7237H8.53758C8.81086 17.7237 9.02141 17.6989 9.16925 17.6493C9.32157 17.5996 9.42684 17.5319 9.48508 17.4461C9.54332 17.3558 9.57244 17.2542 9.57244 17.1414C9.57244 16.9879 9.52092 16.8705 9.41788 16.7893C9.31485 16.708 9.16029 16.6674 8.95421 16.6674C8.80638 16.6674 8.66974 16.6877 8.5443 16.7283C8.41887 16.7689 8.30687 16.8141 8.20831 16.8637C8.10975 16.9134 8.02912 16.9585 7.9664 16.9992L7.46241 16.2204C7.59233 16.1301 7.73344 16.0489 7.88576 15.9767C8.04255 15.8999 8.21727 15.8412 8.40991 15.8006C8.60702 15.76 8.83326 15.7396 9.08861 15.7396C9.5814 15.7396 9.97115 15.8412 10.2579 16.0444C10.5446 16.243 10.6879 16.5206 10.6879 16.8773Z" fill="#C1A9EB"/>
<path d="M14.0829 20.6423H12.9271V18.0352C12.9271 17.972 12.9271 17.884 12.9271 17.7712C12.9271 17.6538 12.9293 17.5296 12.9338 17.3987C12.9383 17.2633 12.9428 17.1459 12.9473 17.0466C12.9114 17.0917 12.8621 17.1459 12.7994 17.2091C12.7367 17.2678 12.6785 17.3197 12.6247 17.3649L12.0737 17.8186L11.5025 17.1008L13.0951 15.8074H14.0829V20.6423Z" fill="#C1A9EB"/>
</svg>
