<svg width="19" height="16" viewBox="0 0 19 16" fill="none" xmlns="http://www.w3.org/2000/svg">
<path d="M18.9915 5.21322C18.9221 3.93737 18.3724 2.73928 17.4438 1.83959C16.5041 0.929147 15.2784 0.427795 13.9923 0.427795C12.0832 0.427795 10.6868 1.92518 9.93654 2.72966C9.77862 2.899 9.60298 3.0874 9.50752 3.16241C9.42685 3.0914 9.28535 2.93303 9.15777 2.79029C8.4203 1.9646 7.04743 0.427795 5.00791 0.427795C3.72189 0.427795 2.49623 0.929147 1.5566 1.83959C0.627913 2.73926 0.0781983 3.93737 0.00871617 5.21322C-0.0353906 6.02416 0.0875846 6.77776 0.384805 7.517L0.438817 7.65355L2.99475 7.6504H3.00317C3.25833 7.6504 3.5024 7.73453 3.65615 7.87907L5.44161 9.55785L6.7317 5.82561C6.83636 5.52289 7.10638 5.32418 7.42047 5.31988L7.434 5.31958C7.73997 5.31958 8.00997 5.51044 8.12176 5.80571L9.90816 10.5305L11.424 5.83891C11.522 5.53548 11.7868 5.3318 12.0986 5.31995C12.4141 5.3075 12.6893 5.48892 12.8117 5.78604L13.6799 7.89081L14.8129 6.34756C14.9762 6.12566 15.2508 5.98236 15.5299 5.98236H18.9843L18.9938 5.78582C19.0028 5.59549 19.002 5.40648 18.9915 5.21322Z" fill="white"/>
<path d="M14.1295 9.63742C13.9674 9.85763 13.693 9.9808 13.4255 9.94892C13.155 9.91672 12.9216 9.73984 12.8166 9.48506L12.2044 8.00142L10.6602 12.7812C10.5607 13.089 10.2922 13.2929 9.97743 13.3004L9.95795 13.3008C9.64542 13.3008 9.3808 13.1144 9.26753 12.8145L7.45854 8.03018L6.45034 10.9465C6.36491 11.1939 6.16283 11.3779 5.90994 11.4386C5.65846 11.4992 5.38954 11.4264 5.19905 11.247L2.82349 9.01197L1.17358 9.01559L1.46368 9.36127C3.18559 11.413 8.23271 15.5687 9.50856 15.5687C10.4215 15.5687 12.9668 13.5495 13.7252 12.9305C15.6453 11.3637 17.289 9.74891 17.9126 8.81689C18.1787 8.41918 18.3868 8.03947 18.549 7.66857L18.6781 7.36707H15.7978L14.1295 9.63742Z" fill="white"/>
</svg>
