<svg width="13" height="16" viewBox="0 0 13 16" fill="none" xmlns="http://www.w3.org/2000/svg">
<path d="M11.5556 1.6H8.53667C8.23333 0.672 7.43889 0 6.5 0C5.56111 0 4.76667 0.672 4.46333 1.6H1.44444C0.65 1.6 0 2.32 0 3.2V14.4C0 15.28 0.65 16 1.44444 16H11.5556C12.35 16 13 15.28 13 14.4V3.2C13 2.32 12.35 1.6 11.5556 1.6ZM6.5 1.6C6.89722 1.6 7.22222 1.96 7.22222 2.4C7.22222 2.84 6.89722 3.2 6.5 3.2C6.10278 3.2 5.77778 2.84 5.77778 2.4C5.77778 1.96 6.10278 1.6 6.5 1.6ZM5.05556 12.8L2.16667 9.6L3.185 8.472L5.05556 10.536L9.815 5.264L10.8333 6.4L5.05556 12.8Z" fill="white"/>
</svg>
