<svg width="26" height="26" viewBox="0 0 26 26" fill="none" xmlns="http://www.w3.org/2000/svg">
<path d="M17.95 15C19.468 15 20.689 13.72 20.689 12.1429C20.689 10.5657 19.468 9.28571 17.95 9.28571C16.432 9.28571 15.2 10.5657 15.2 12.1429C15.2 13.72 16.432 15 17.95 15ZM9.7 13.8571C11.526 13.8571 12.989 12.3257 12.989 10.4286C12.989 8.53143 11.526 7 9.7 7C7.874 7 6.4 8.53143 6.4 10.4286C6.4 12.3257 7.874 13.8571 9.7 13.8571ZM17.95 17.2857C15.937 17.2857 11.9 18.3371 11.9 20.4286V23H24V20.4286C24 18.3371 19.963 17.2857 17.95 17.2857ZM9.7 16.1429C7.137 16.1429 2 17.48 2 20.1429V23H9.7V20.4286C9.7 19.4571 10.063 17.7543 12.307 16.4629C11.35 16.2571 10.426 16.1429 9.7 16.1429Z" fill="#1676F3"/>
</svg>
