<svg width="26" height="29" viewBox="0 0 26 29" fill="none" xmlns="http://www.w3.org/2000/svg">
<path d="M23.4 2.63636H22.1V0H19.5V2.63636H6.5V0H3.9V2.63636H2.6C1.17 2.63636 0 3.82273 0 5.27273V26.3636C0 27.8136 1.17 29 2.6 29H23.4C24.83 29 26 27.8136 26 26.3636V5.27273C26 3.82273 24.83 2.63636 23.4 2.63636ZM23.4 26.3636H2.6V9.22727H23.4V26.3636Z" fill="#1676F3"/>
<path d="M23.4 2.63636H22.1V0H19.5V2.63636H6.5V0H3.9V2.63636H2.6C1.17 2.63636 0 3.82273 0 5.27273V26.3636C0 27.8136 1.17 29 2.6 29H23.4C24.83 29 26 27.8136 26 26.3636V5.27273C26 3.82273 24.83 2.63636 23.4 2.63636ZM23.4 26.3636H2.6V9.22727H23.4V26.3636Z" fill="black" fill-opacity="0.2"/>
<path d="M23.4 2.63636H22.1V0H19.5V2.63636H6.5V0H3.9V2.63636H2.6C1.17 2.63636 0 3.82273 0 5.27273V26.3636C0 27.8136 1.17 29 2.6 29H23.4C24.83 29 26 27.8136 26 26.3636V5.27273C26 3.82273 24.83 2.63636 23.4 2.63636ZM23.4 26.3636H2.6V9.22727H23.4V26.3636Z" fill="black" fill-opacity="0.2"/>
<path d="M23.4 2.63636H22.1V0H19.5V2.63636H6.5V0H3.9V2.63636H2.6C1.17 2.63636 0 3.82273 0 5.27273V26.3636C0 27.8136 1.17 29 2.6 29H23.4C24.83 29 26 27.8136 26 26.3636V5.27273C26 3.82273 24.83 2.63636 23.4 2.63636ZM23.4 26.3636H2.6V9.22727H23.4V26.3636Z" fill="#414141"/>
</svg>
