<svg width="66" height="66" viewBox="0 0 66 66" fill="none" xmlns="http://www.w3.org/2000/svg">
<path d="M33 58.268L29.061 54.706C15.072 42.105 5.83601 33.794 5.83601 23.595C5.8232 21.6341 6.20163 19.6903 6.94914 17.8775C7.69665 16.0646 8.79823 14.4191 10.1894 13.0371C11.5806 11.6551 13.2335 10.5645 15.0512 9.82906C16.869 9.09362 18.8153 8.72813 20.776 8.75397C23.0975 8.7699 25.3888 9.28119 27.4969 10.2536C29.6049 11.2261 31.4811 12.6373 33 14.393C34.5189 12.6373 36.3951 11.2261 38.5032 10.2536C40.6112 9.28119 42.9025 8.7699 45.224 8.75397C47.1848 8.72813 49.131 9.09362 50.9488 9.82906C52.7666 10.5645 54.4194 11.6551 55.8106 13.0371C57.2018 14.4191 58.3034 16.0646 59.0509 17.8775C59.7984 19.6903 60.1768 21.6341 60.164 23.595C60.164 33.795 50.928 42.105 36.939 54.733L33 58.268Z" fill="white"/>
</svg>
