<svg width="24" height="24" viewBox="0 0 24 24" fill="none" xmlns="http://www.w3.org/2000/svg">
<path d="M2.82652 24C1.26829 24 0 22.7258 0 21.1602V2.83912C0 1.27363 1.26829 0 2.82652 0H21.1577C22.725 0 24 1.27363 24 2.83912V21.1602C24 22.7257 22.725 24 21.1577 24H2.82652ZM3.00918 1.09217C1.948 1.09217 1.08508 1.95779 1.08508 3.02158V20.9777C1.08508 22.0419 1.948 22.9078 3.00918 22.9078H20.9752C22.0402 22.9078 22.9069 22.0419 22.9069 20.9777V3.02158C22.9069 1.95779 22.0402 1.09217 20.9752 1.09217H3.00918Z" fill="#1676F3"/>
<path d="M16.5504 12.5907C16.4885 12.5907 16.4286 12.5778 16.3718 12.5518C15.1218 11.9886 13.7998 11.6745 12.437 11.6182L12.6527 11.0343L12.6635 10.9891L13.8767 7.71092C13.94 7.54097 14.1041 7.42651 14.2864 7.42651C14.3373 7.42651 14.3878 7.43536 14.4369 7.45306C14.6616 7.5362 14.7772 7.78747 14.6939 8.01206L13.6389 10.864L14.0706 10.9408C14.7572 11.0629 15.4098 11.2391 16.0104 11.4629L16.3317 11.5826L18.6137 6.53548L18.2557 6.39444C16.2569 5.60369 14.1475 5.20299 11.9865 5.20299C9.82491 5.20299 7.71549 5.60383 5.71673 6.39444L5.35944 6.53548L7.64026 11.5826L7.9617 11.4629C8.76837 11.1622 9.61174 10.9534 10.4761 10.8411L10.1323 11.7711C9.26107 11.9241 8.41038 12.1866 7.60062 12.5518C7.54395 12.5774 7.48307 12.5904 7.42106 12.5904C7.36819 12.5904 7.31673 12.5811 7.26723 12.5627C7.15981 12.5216 7.07164 12.4387 7.02453 12.3348L4.39009 6.49615C4.2918 6.27718 4.38868 6.0186 4.60648 5.92C6.93919 4.86716 9.42263 4.33246 11.9865 4.33246C14.5498 4.33246 17.0335 4.86716 19.369 5.92028C19.4752 5.96831 19.5562 6.05441 19.5975 6.16326C19.6389 6.27183 19.6349 6.39054 19.5871 6.49574L16.9473 12.3346C16.8773 12.4903 16.7214 12.5907 16.5504 12.5907Z" fill="#1676F3" stroke="#1676F3" stroke-width="0.3" stroke-miterlimit="10"/>
</svg>
