<svg width="22" height="24" viewBox="0 0 22 24" fill="none" xmlns="http://www.w3.org/2000/svg">
<path d="M16.25 11.9167V5.41666L13 2.16666L9.75 5.41666V7.58332H3.25V22.75H22.75V11.9167H16.25ZM7.58333 20.5833H5.41667V18.4167H7.58333V20.5833ZM7.58333 16.25H5.41667V14.0833H7.58333V16.25ZM7.58333 11.9167H5.41667V9.74999H7.58333V11.9167ZM14.0833 20.5833H11.9167V18.4167H14.0833V20.5833ZM14.0833 16.25H11.9167V14.0833H14.0833V16.25ZM14.0833 11.9167H11.9167V9.74999H14.0833V11.9167ZM14.0833 7.58332H11.9167V5.41666H14.0833V7.58332ZM20.5833 20.5833H18.4167V18.4167H20.5833V20.5833ZM20.5833 16.25H18.4167V14.0833H20.5833V16.25Z" fill="#1676F3"/>
</svg>
