<svg width="29" height="29" viewBox="0 0 29 29" fill="none" xmlns="http://www.w3.org/2000/svg">
<path d="M26.1103 0.0969284H2.97785C2.59966 0.0962553 2.22507 0.170156 1.87557 0.314658C1.52608 0.45916 1.20858 0.671247 0.941296 0.938799C0.674007 1.20635 0.462212 1.52427 0.318054 1.8739C0.173896 2.22354 0.100247 2.5982 0.101292 2.97639L0.0859375 28.9031L5.8692 23.1398H26.1103C26.4891 23.1405 26.8643 23.0666 27.2145 22.9223C27.5647 22.7781 27.8831 22.5664 28.1515 22.299C28.4198 22.0317 28.6328 21.7139 28.7784 21.3642C28.924 21.0145 28.9992 20.6397 28.9999 20.2609V2.97639C28.9992 2.59758 28.924 2.22251 28.7784 1.8728C28.6329 1.52308 28.4198 1.20563 28.1515 0.938246C27.8831 0.670865 27.5648 0.458725 27.2146 0.314382C26.8643 0.170039 26.4891 0.0962581 26.1103 0.0969284ZM23.2207 17.3781L17.4374 12.7698V17.3781H5.87093V5.8564H17.4374V10.4655L23.2207 5.8564V17.3781Z" fill="white"/>
</svg>
