<svg width="22" height="22" viewBox="0 0 22 22" fill="none" xmlns="http://www.w3.org/2000/svg">
<path d="M11.0001 6.41667C13.5301 6.41667 15.5834 8.47 15.5834 11C15.5834 11.5958 15.4642 12.155 15.2534 12.6775L17.9301 15.3542C19.3142 14.1992 20.4051 12.705 21.0742 11C19.4884 6.97583 15.5742 4.125 10.9909 4.125C9.70758 4.125 8.47925 4.35417 7.34258 4.76667L9.32258 6.74667C9.84508 6.53583 10.4042 6.41667 11.0001 6.41667ZM1.83341 3.91417L3.92342 6.00417L4.34508 6.42583C2.82341 7.60833 1.63175 9.185 0.916748 11C2.50258 15.0242 6.41675 17.875 11.0001 17.875C12.4209 17.875 13.7776 17.6 15.0151 17.105L15.4001 17.49L18.0859 20.1667L19.2501 19.0025L2.99758 2.75L1.83341 3.91417ZM6.90258 8.98333L8.32342 10.4042C8.27758 10.5967 8.25008 10.7983 8.25008 11C8.25008 12.5217 9.47842 13.75 11.0001 13.75C11.2017 13.75 11.4034 13.7225 11.5959 13.6767L13.0167 15.0975C12.4026 15.4 11.7242 15.5833 11.0001 15.5833C8.47008 15.5833 6.41675 13.53 6.41675 11C6.41675 10.2758 6.60008 9.5975 6.90258 8.98333V8.98333ZM10.8534 8.26833L13.7409 11.1558L13.7592 11.0092C13.7592 9.4875 12.5309 8.25917 11.0092 8.25917L10.8534 8.26833Z" fill="#1676F3"/>
</svg>
