<svg width="24" height="24" viewBox="0 0 24 24" fill="none" xmlns="http://www.w3.org/2000/svg">
<path d="M24 4.5998L18.48 0L16.932 1.82324L22.452 6.42304L24 4.5998ZM7.056 1.82324L5.52 0L0 4.58788L1.548 6.41112L7.056 1.82324ZM12.6 7.31678H10.8V14.4667L16.5 17.863L17.4 16.3972L12.6 13.573V7.31678ZM12 2.55015C6.036 2.55015 1.2 7.35253 1.2 13.2751C1.2 19.1976 6.024 24 12 24C17.964 24 22.8 19.1976 22.8 13.2751C22.8 7.35253 17.964 2.55015 12 2.55015ZM12 21.6167C7.356 21.6167 3.6 17.8868 3.6 13.2751C3.6 8.66336 7.356 4.93347 12 4.93347C16.644 4.93347 20.4 8.66336 20.4 13.2751C20.4 17.8868 16.644 21.6167 12 21.6167Z" fill="#1676F3"/>
</svg>
