<svg width="15" height="14" viewBox="0 0 15 14" fill="none" xmlns="http://www.w3.org/2000/svg">
<path d="M11.087 0C8.91925 0 7.17391 1.78413 7.17391 4V4.66667H1.25849C0.564579 4.66667 0 5.26467 0 6V12.6667C0 13.402 0.564579 14 1.25849 14H8.52412C9.21803 14 9.78261 13.402 9.78261 12.6667V6C9.78261 5.26467 9.21865 4.66667 8.52539 4.66667H8.47826V4C8.47826 2.48254 9.60248 1.33333 11.087 1.33333C12.5714 1.33333 13.6957 2.48254 13.6957 4V5.33333H15V4C15 1.78413 13.2547 0 11.087 0ZM4.8964 8C5.61379 8 6.20075 8.6 6.20075 9.33333C6.20075 10.0667 5.61379 10.6667 4.8964 10.6667C4.17901 10.6667 3.59205 10.0667 3.59205 9.33333C3.59205 8.6 4.17901 8 4.8964 8Z" fill="white"/>
</svg>
