<svg width="51" height="47" viewBox="0 0 51 47" fill="none" xmlns="http://www.w3.org/2000/svg">
<path d="M25.3729 34.233C29.8795 34.233 33.5329 30.5717 33.5329 26.0552C33.5329 21.5388 29.8795 17.8774 25.3729 17.8774C20.8662 17.8774 17.2129 21.5388 17.2129 26.0552C17.2129 30.5717 20.8662 34.233 25.3729 34.233Z" fill="#1676F3"/>
<path d="M17.85 0.5L13.1835 5.61111H5.1C2.295 5.61111 0 7.91111 0 10.7222V41.3889C0 44.2 2.295 46.5 5.1 46.5H45.9C48.705 46.5 51 44.2 51 41.3889V10.7222C51 7.91111 48.705 5.61111 45.9 5.61111H37.8165L33.15 0.5H17.85ZM25.5 38.8333C18.462 38.8333 12.75 33.1089 12.75 26.0556C12.75 19.0022 18.462 13.2778 25.5 13.2778C32.538 13.2778 38.25 19.0022 38.25 26.0556C38.25 33.1089 32.538 38.8333 25.5 38.8333Z" fill="#1676F3"/>
</svg>
