<svg width="47" height="39" viewBox="0 0 47 39" fill="none" xmlns="http://www.w3.org/2000/svg">
<path d="M36.4723 14.342V3.187C36.5392 2.42102 36.3044 1.65917 35.8178 1.06384C35.3311 0.468503 34.6313 0.0867708 33.8673 0H2.61126C1.84818 0.0879741 1.14953 0.470221 0.663958 1.06542C0.178387 1.66062 -0.0557849 2.42179 0.0112626 3.187V35.057C-0.0557849 35.8222 0.178387 36.5834 0.663958 37.1786C1.14953 37.7738 1.84818 38.156 2.61126 38.244H33.8673C34.6303 38.156 35.329 37.7738 35.8146 37.1786C36.3001 36.5834 36.5343 35.8222 36.4673 35.057V23.9L46.8893 36.651V1.594L36.4723 14.342Z" fill="white"/>
</svg>
