<svg width="56" height="50" viewBox="0 0 56 50" fill="none" xmlns="http://www.w3.org/2000/svg">
<path d="M49.6599 5.72596H40.9599L35.9339 0.235962H19.4629L14.4399 5.72596H5.73695C4.28203 5.73018 2.88793 6.31009 1.85924 7.33896C0.830554 8.36784 0.250906 9.76205 0.246948 11.217V44.159C0.251169 45.6137 0.830934 47.0077 1.8596 48.0363C2.88826 49.065 4.28221 49.6447 5.73695 49.649H49.6599C51.1147 49.6447 52.5086 49.065 53.5373 48.0363C54.566 47.0077 55.1457 45.6137 55.1499 44.159V11.217C55.146 9.76205 54.5663 8.36784 53.5377 7.33896C52.509 6.31009 51.1149 5.73018 49.6599 5.72596ZM27.6989 41.414C24.059 41.4126 20.5685 39.9661 17.9947 37.3922C15.4208 34.8184 13.9743 31.3279 13.9729 27.688H8.48295L15.3469 20.825L22.2099 27.688H16.7199C16.7197 29.1299 17.0035 30.5577 17.5551 31.8899C18.1068 33.2221 18.9154 34.4326 19.935 35.4522C20.9545 36.4719 22.1649 37.2806 23.4971 37.8324C24.8292 38.3842 26.257 38.6681 27.6989 38.668C29.2325 38.6653 30.7481 38.3378 32.1459 37.707L34.1769 39.736C32.1859 40.813 29.9625 41.389 27.6989 41.414ZM40.0469 34.551L33.1839 27.688H38.6739C38.6743 26.2463 38.3908 24.8187 37.8394 23.4866C37.2881 22.1546 36.4798 20.9441 35.4607 19.9245C34.4416 18.9048 33.2316 18.0958 31.8998 17.5438C30.5681 16.9917 29.1406 16.7074 27.6989 16.707C26.1637 16.7089 24.6463 17.0364 23.2469 17.668L21.2159 15.668C23.2967 14.5174 25.6425 13.9319 28.0198 13.9697C30.3972 14.0075 32.7232 14.6673 34.7663 15.8834C36.8094 17.0996 38.4984 18.8297 39.665 20.9014C40.8317 22.9732 41.4353 25.3144 41.4159 27.692H46.9059L40.0469 34.551Z" fill="white"/>
</svg>
