<svg width="19" height="17" viewBox="0 0 19 17" fill="none" xmlns="http://www.w3.org/2000/svg">
<path d="M6.65 0L4.9115 1.88889H1.9C0.855 1.88889 0 2.73889 0 3.77778V15.1111C0 16.15 0.855 17 1.9 17H17.1C18.145 17 19 16.15 19 15.1111V3.77778C19 2.73889 18.145 1.88889 17.1 1.88889H14.0885L12.35 0H6.65ZM9.5 14.1667C6.878 14.1667 4.75 12.0511 4.75 9.44444C4.75 6.83778 6.878 4.72222 9.5 4.72222C12.122 4.72222 14.25 6.83778 14.25 9.44444C14.25 12.0511 12.122 14.1667 9.5 14.1667Z" fill="#1676F3"/>
</svg>
