<svg width="25" height="25" viewBox="0 0 25 25" fill="none" xmlns="http://www.w3.org/2000/svg">
<g clip-path="url(#clip0_3282_4506)">
<path d="M3.125 11.4583H11.4583V3.125H3.125V11.4583ZM5.20833 5.20833H9.375V9.375H5.20833V5.20833Z" fill="#1676F3"/>
<path d="M3.125 21.875H11.4583V13.5416H3.125V21.875ZM5.20833 15.625H9.375V19.7916H5.20833V15.625Z" fill="#1676F3"/>
<path d="M13.5415 3.125V11.4583H21.8748V3.125H13.5415ZM19.7915 9.375H15.6248V5.20833H19.7915V9.375Z" fill="#1676F3"/>
<path d="M21.8748 19.7916H19.7915V21.875H21.8748V19.7916Z" fill="#1676F3"/>
<path d="M15.6248 13.5416H13.5415V15.625H15.6248V13.5416Z" fill="#1676F3"/>
<path d="M17.7083 15.625H15.625V17.7083H17.7083V15.625Z" fill="#1676F3"/>
<path d="M15.6248 17.7084H13.5415V19.7917H15.6248V17.7084Z" fill="#1676F3"/>
<path d="M17.7083 19.7916H15.625V21.875H17.7083V19.7916Z" fill="#1676F3"/>
<path d="M19.7918 17.7084H17.7085V19.7917H19.7918V17.7084Z" fill="#1676F3"/>
<path d="M19.7918 13.5416H17.7085V15.625H19.7918V13.5416Z" fill="#1676F3"/>
<path d="M21.8748 15.625H19.7915V17.7083H21.8748V15.625Z" fill="#1676F3"/>
</g>
<defs>
<clipPath id="clip0_3282_4506">
<rect width="25" height="25" fill="white"/>
</clipPath>
</defs>
</svg>
