<svg width="16" height="16" viewBox="0 0 16 16" fill="none" xmlns="http://www.w3.org/2000/svg">
<circle cx="8" cy="8" r="8" fill="#1676F3"/>
<path d="M6.5 4L5.585 4.88889H4C3.45 4.88889 3 5.28889 3 5.77778V11.1111C3 11.6 3.45 12 4 12H12C12.55 12 13 11.6 13 11.1111V5.77778C13 5.28889 12.55 4.88889 12 4.88889H10.415L9.5 4H6.5ZM8 10.6667C6.62 10.6667 5.5 9.67111 5.5 8.44444C5.5 7.21778 6.62 6.22222 8 6.22222C9.38 6.22222 10.5 7.21778 10.5 8.44444C10.5 9.67111 9.38 10.6667 8 10.6667Z" fill="white"/>
</svg>
