<svg width="33" height="22" viewBox="0 0 33 22" fill="none" xmlns="http://www.w3.org/2000/svg">
<rect y="1" width="32" height="20" rx="5" fill="#1676F3"/>
<path d="M11.5 0.5L0 2.83333V19.1667L11.5 21.5V0.5ZM13.8 2.83333V5.16667H16.1V7.5H13.8V9.83333H16.1V12.1667H13.8V14.5H16.1V16.8333H13.8V19.1667H21.85C22.4848 19.1667 23 18.644 23 18V4C23 3.356 22.4848 2.83333 21.85 2.83333H13.8ZM18.4 5.16667H20.7V7.5H18.4V5.16667ZM2.50215 6.67969H4.54609L5.6085 9.26367C5.69475 9.47484 5.75967 9.71973 5.82637 9.9974H5.85557C5.89352 9.83056 5.97076 9.57566 6.08691 9.24316L7.27061 6.67969H9.13486L6.90898 10.9613L9.2 15.3203H7.21221L5.93193 12.5039C5.88363 12.4047 5.82635 12.2051 5.7792 11.9274H5.76123C5.73248 12.0604 5.67453 12.2595 5.58828 12.5267L4.29678 15.3203H2.3L4.66963 10.9954L2.50215 6.67969ZM18.4 9.83333H20.7V12.1667H18.4V9.83333ZM18.4 14.5H20.7V16.8333H18.4V14.5Z" fill="white"/>
<path d="M25.6667 19.6333V16.587C23.8581 16.6386 22.3266 16.9746 21.0187 17.6032C19.5954 18.2871 18.41 19.3303 17.4122 20.7831C17.2781 20.9782 17.0256 21.0526 16.8072 20.9613C16.5888 20.87 16.4643 20.6381 16.509 20.4056C16.9364 18.183 17.7966 15.9289 19.3257 14.1114C20.7899 12.3712 22.8495 11.0535 25.6667 10.5424V7.5C25.6667 7.29598 25.7906 7.11243 25.9799 7.03621C26.1691 6.95998 26.3857 7.00638 26.5271 7.15345L32.3604 13.2201C32.5465 13.4137 32.5465 13.7197 32.3604 13.9132L26.5271 19.9799C26.3857 20.1269 26.1691 20.1733 25.9799 20.0971C25.7906 20.0209 25.6667 19.8373 25.6667 19.6333Z" fill="white" stroke="#1676F3" stroke-linejoin="round"/>
</svg>
