<svg width="23" height="24" viewBox="0 0 23 24" fill="none" xmlns="http://www.w3.org/2000/svg">
<path d="M4.7612 3.34589C5.81202 3.34589 6.66694 4.19125 6.66694 5.23032C6.66694 6.26938 5.81202 7.11475 4.7612 7.11475C3.71038 7.11475 2.85546 6.26938 2.85546 5.23032C2.85546 4.19125 3.71038 3.34589 4.7612 3.34589ZM4.7612 2.5C3.23624 2.5 2 3.72252 2 5.23032C2 6.73811 3.23635 7.96063 4.7612 7.96063C6.28605 7.96063 7.5224 6.73811 7.5224 5.23032C7.5224 3.72252 6.28605 2.5 4.7612 2.5Z" fill="#1676F3"/>
<path fill-rule="evenodd" clip-rule="evenodd" d="M5.62221 8.3803C5.62221 8.54578 5.48652 8.68006 5.31907 8.68006H4.24728C4.07983 8.68006 3.94413 8.54578 3.94413 8.3803V7.49507C3.94413 7.32959 4.07983 7.19531 4.24728 7.19531H5.31907C5.48652 7.19531 5.62221 7.32959 5.62221 7.49507V8.3803Z" fill="#1676F3"/>
<path fill-rule="evenodd" clip-rule="evenodd" d="M4.25509 5.02591C4.25509 4.86043 4.39079 4.72615 4.55824 4.72615H4.96779C5.13524 4.72615 5.27094 4.86043 5.27094 5.02591V5.43089C5.27094 5.59636 5.13524 5.73064 4.96779 5.73064H4.55824C4.39079 5.73064 4.25509 5.59636 4.25509 5.43089V5.02591Z" fill="#1676F3"/>
<path fill-rule="evenodd" clip-rule="evenodd" d="M4.25509 5.07233C4.25509 5.07233 3.67562 4.31853 3.66023 4.15062C3.66023 4.15062 3.53682 3.97354 4.52862 4.72807V5.02834L4.25509 5.07233Z" fill="#1676F3"/>
<path d="M11.259 19.342C10.197 19.342 9.28859 19.0675 8.57589 18.733C6.9224 17.9567 5.97445 16.7195 5.93488 16.6672C4.13265 14.2841 4.34588 8.59081 4.35582 8.34962L5.21042 8.38409C5.20818 8.44013 4.99923 14.0177 6.62 16.1607C6.75784 16.3418 10.0631 20.566 15.0179 17.2074C15.1271 17.1212 16.7369 15.8081 16.7241 13.5936L17.5796 13.5886C17.5952 16.3034 15.6139 17.8222 15.5296 17.8855L15.5133 17.8972C13.9319 18.9722 12.492 19.342 11.259 19.342Z" fill="#1676F3"/>
<path d="M10.8293 21.5H10.8226C7.87292 21.5 6.26702 20.1598 5.43937 19.0357C4.59118 17.8837 4.3755 16.7356 4.34876 16.576C4.11105 15.5183 4.2382 14.6385 4.72656 13.9605C5.45359 12.9514 6.70918 12.8012 6.76222 12.7954L6.78307 12.7935C6.81013 12.7917 9.54887 12.5924 9.92506 10.7321L10.764 10.8979C10.2707 13.338 7.12943 13.6169 6.85183 13.6366C6.77152 13.6479 5.89842 13.7855 5.41915 14.4569C5.07932 14.9332 5.00105 15.588 5.18647 16.4035L5.19214 16.4338C5.21887 16.6051 5.9073 20.6495 10.8148 20.6539C10.9926 20.6466 15.3491 20.4302 16.838 17.5422L16.8546 17.51L16.8763 17.4812C16.8847 17.4699 17.801 16.2176 17.7648 14.2964L18.6202 14.2806C18.6592 16.35 17.7481 17.7263 17.5849 17.9555C15.8287 21.3098 11.0393 21.4935 10.8358 21.4997L10.8293 21.5Z" fill="#1676F3"/>
<path fill-rule="evenodd" clip-rule="evenodd" d="M14.1557 8.24315C14.0931 8.24315 13.7384 10.0298 12.3402 10.6015V12.5555C12.3402 12.5555 12.5281 13.5666 13.3628 13.5253L15.5329 13.5266C15.5329 13.5266 15.2407 14.6808 16.2632 14.6808H19.748C19.748 14.6808 21 14.8045 21 13.0713V7.93758C21 7.93758 21 6.59239 19.6437 6.59239H14.1766V7.48999H19.5185C19.5185 7.48999 20.1444 7.64457 20.1444 8.36675V8.67995C20.1444 8.67995 20.0819 9.3572 19.4768 9.3572L18.183 9.3778L18.1621 8.67985C18.1621 8.67985 18.1204 8.22243 17.4736 8.24294H14.1557V8.24315Z" fill="#1676F3"/>
<path d="M13.7586 5.96655L13.8168 5.85234C13.9992 5.492 13.8515 5.05372 13.4869 4.87302C13.1226 4.69264 12.6792 4.83866 12.4967 5.1988L12.4386 5.31321L13.0986 5.63984L13.7586 5.96655Z" fill="#1676F3"/>
<path d="M10.1743 9.76637L10.8416 10.097L11.5097 10.4275C11.5097 10.4275 12.6116 10.2745 13.4014 8.71461C14.1915 7.15426 13.6554 6.19037 13.6554 6.19037L13.6475 6.18647L12.9875 5.85963L12.3273 5.5329L12.3198 5.52931C12.3198 5.52931 11.2179 5.68199 10.4278 7.24213C9.63793 8.80216 10.1743 9.76637 10.1743 9.76637Z" fill="#1676F3"/>
<path fill-rule="evenodd" clip-rule="evenodd" d="M10.9029 11.5657C10.8342 11.6931 10.6742 11.7415 10.5452 11.6735L9.71996 11.239C9.591 11.171 9.54225 11.0127 9.6109 10.8853L9.9781 10.2037C10.0466 10.0763 10.2068 10.0279 10.3358 10.0958L11.1609 10.5304C11.2899 10.5984 11.3386 10.7567 11.2701 10.8841L10.9029 11.5657Z" fill="#1676F3"/>
</svg>
