<svg width="20" height="20" viewBox="0 0 20 20" fill="none" xmlns="http://www.w3.org/2000/svg">
<path d="M10.1164 11.8657C10.6316 12.0575 11.201 11.7855 11.3884 11.2599L12.3652 5.55127L9.52351 10.5653C9.33606 11.0918 9.6015 11.6738 10.1164 11.8657ZM10.0875 10.8246C10.1587 10.6253 10.3741 10.5226 10.5693 10.5953C10.764 10.6676 10.8648 10.8885 10.7939 11.0873C10.7227 11.2866 10.5068 11.3898 10.3119 11.3171C10.1169 11.2443 10.0166 11.0239 10.0875 10.8246Z" fill="white"/>
<path d="M10.0658 18.9999C9.23258 18.9999 7.39891 18.8172 5.5333 17.4239C5.23638 17.202 5.17154 16.7763 5.38859 16.4726C5.60541 16.1693 6.0219 16.1028 6.31905 16.3247C8.35004 17.8414 10.3474 17.6287 10.3674 17.6263L10.4463 17.6212C14.0617 17.6212 17.0032 14.6149 17.0032 10.9195C17.0032 7.22413 14.0617 4.21783 10.4463 4.21783C8.11137 4.21783 5.93404 5.50381 4.76422 7.57396C4.71348 7.66352 4.66485 7.75403 4.61858 7.84599C4.44991 8.17997 4.04846 8.31083 3.72147 8.13868C3.39472 7.96628 3.26646 7.55571 3.43513 7.22173C3.49127 7.11056 3.54999 7.00108 3.6113 6.89279C5.01791 4.40342 7.6371 2.85693 10.4463 2.85693C14.7961 2.85693 18.3349 6.47381 18.3349 10.9198C18.3349 15.354 14.8153 18.9634 10.4816 18.9826C10.4106 18.9891 10.2676 18.9999 10.0658 18.9999Z" fill="white"/>
<path d="M11.9607 2.21755C11.9607 2.40555 11.812 2.55778 11.629 2.55778H9.26819C9.08473 2.55778 8.93604 2.40531 8.93604 2.21755V1.34022C8.93604 1.15222 9.08473 1 9.26819 1H11.629C11.812 1 11.9607 1.15246 11.9607 1.34022V2.21755Z" fill="white"/>
<path d="M5.46512 6.02325C5.33358 6.15459 5.15223 6.18316 5.06038 6.08688L3.87529 4.847C3.7832 4.75072 3.81539 4.56608 3.9467 4.43475L4.5605 3.82177C4.69205 3.69043 4.8734 3.66186 4.96548 3.75838L6.15057 4.99826C6.24242 5.0943 6.21024 5.27894 6.07893 5.41028L5.46512 6.02325Z" fill="white"/>
<path d="M15.7593 6.02325C15.8911 6.15459 16.0722 6.18316 16.1643 6.08688L17.3494 4.847C17.4414 4.75072 17.4093 4.56608 17.2779 4.43475L16.6641 3.82177C16.5324 3.69043 16.3512 3.66186 16.2589 3.75838L15.0738 4.99826C14.982 5.0943 15.0142 5.27894 15.1455 5.41028L15.7593 6.02325Z" fill="white"/>
<path d="M11.2378 2.37842H9.65527V2.97555H11.2378V2.37842Z" fill="white"/>
<path fill-rule="evenodd" clip-rule="evenodd" d="M2.00031 9.53125H6.83254C7.08084 9.53125 7.28403 9.7387 7.28403 9.99272C7.28403 10.2465 7.08084 10.4537 6.83254 10.4537H2.00031C1.75202 10.4537 1.54883 10.2465 1.54883 9.99272C1.54883 9.7387 1.75179 9.53125 2.00031 9.53125Z" fill="white"/>
<path fill-rule="evenodd" clip-rule="evenodd" d="M3.35188 12.7427H8.1841C8.4324 12.7427 8.63559 12.9499 8.63559 13.2041C8.63559 13.4579 8.4324 13.6651 8.1841 13.6651H3.35188C3.10358 13.6651 2.90039 13.4579 2.90039 13.2041C2.90039 12.9499 3.10335 12.7427 3.35188 12.7427Z" fill="white"/>
<path fill-rule="evenodd" clip-rule="evenodd" d="M0.451487 11.1597H6.50287C6.75116 11.1597 6.95412 11.3669 6.95412 11.6211C6.95412 11.8749 6.75116 12.0826 6.50287 12.0826H0.451487C0.203192 12.0826 0 11.8749 0 11.6211C0 11.3671 0.203192 11.1597 0.451487 11.1597Z" fill="white"/>
<path fill-rule="evenodd" clip-rule="evenodd" d="M1.39143 14.437H7.44281C7.69111 14.437 7.89406 14.6442 7.89406 14.8985C7.89406 15.1523 7.69111 15.36 7.44281 15.36H1.39143C1.14313 15.36 0.939941 15.1523 0.939941 14.8985C0.939941 14.6442 1.14313 14.437 1.39143 14.437Z" fill="white"/>
</svg>
