<svg width="29" height="34" viewBox="0 0 29 34" fill="none" xmlns="http://www.w3.org/2000/svg">
<path d="M25.1928 4.2181H18.6112C17.9499 2.34523 16.2179 0.989014 14.171 0.989014C12.1241 0.989014 10.392 2.34523 9.73074 4.2181H3.14911C1.4171 4.2181 0 5.67119 0 7.44718V30.0508C0 31.8268 1.4171 33.2799 3.14911 33.2799H25.1928C26.9249 33.2799 28.342 31.8268 28.342 30.0508V7.44718C28.342 5.67119 26.9249 4.2181 25.1928 4.2181ZM14.171 4.2181C15.037 4.2181 15.7455 4.94464 15.7455 5.83264C15.7455 6.72064 15.037 7.44718 14.171 7.44718C13.305 7.44718 12.5964 6.72064 12.5964 5.83264C12.5964 4.94464 13.305 4.2181 14.171 4.2181ZM11.0219 26.8217L4.72366 20.3635L6.94378 18.087L11.0219 22.2525L21.3982 11.6127L23.6183 13.9054L11.0219 26.8217Z" fill="white"/>
</svg>
