<svg width="66" height="66" viewBox="0 0 66 66" fill="none" xmlns="http://www.w3.org/2000/svg">
<path d="M33.0001 22.336C34.4791 22.3953 35.9217 21.8685 37.0145 20.8701C38.1073 19.8717 38.7619 18.4823 38.8361 17.004C38.7619 15.5257 38.1073 14.1363 37.0145 13.1379C35.9217 12.1395 34.4791 11.6127 33.0001 11.672C31.5211 11.6127 30.0784 12.1395 28.9856 13.1379C27.8928 14.1363 27.2382 15.5257 27.1641 17.004C27.2382 18.4823 27.8928 19.8717 28.9856 20.8701C30.0784 21.8685 31.5211 22.3953 33.0001 22.336ZM33.0001 27.668C31.5211 27.6087 30.0784 28.1355 28.9856 29.1339C27.8928 30.1323 27.2382 31.5217 27.1641 33C27.2382 34.4783 27.8928 35.8677 28.9856 36.8661C30.0784 37.8645 31.5211 38.3913 33.0001 38.332C34.4791 38.3913 35.9217 37.8645 37.0145 36.8661C38.1073 35.8677 38.7619 34.4783 38.8361 33C38.7609 31.5224 38.1058 30.134 37.0132 29.1365C35.9205 28.1389 34.4784 27.6127 33.0001 27.672V27.668ZM33.0001 43.668C31.5217 43.6087 30.0796 44.1349 28.987 45.1325C27.8943 46.13 27.2392 47.5184 27.1641 48.996C27.2382 50.4743 27.8928 51.8637 28.9856 52.8621C30.0784 53.8605 31.5211 54.3873 33.0001 54.328C34.4791 54.3873 35.9217 53.8605 37.0145 52.8621C38.1073 51.8637 38.7619 50.4743 38.8361 48.996C38.7619 47.5177 38.1073 46.1283 37.0145 45.1299C35.9217 44.1315 34.4791 43.6047 33.0001 43.664V43.668Z" fill="white"/>
</svg>
