<svg width="14" height="14" viewBox="0 0 14 14" fill="none" xmlns="http://www.w3.org/2000/svg">
<path d="M6.375 10.75H7.625V9.5H6.375V10.75ZM7 0.75C3.55 0.75 0.75 3.55 0.75 7C0.75 10.45 3.55 13.25 7 13.25C10.45 13.25 13.25 10.45 13.25 7C13.25 3.55 10.45 0.75 7 0.75ZM7 12C4.24375 12 2 9.75625 2 7C2 4.24375 4.24375 2 7 2C9.75625 2 12 4.24375 12 7C12 9.75625 9.75625 12 7 12ZM7 3.25C5.61875 3.25 4.5 4.36875 4.5 5.75H5.75C5.75 5.0625 6.3125 4.5 7 4.5C7.6875 4.5 8.25 5.0625 8.25 5.75C8.25 7 6.375 6.84375 6.375 8.875H7.625C7.625 7.46875 9.5 7.3125 9.5 5.75C9.5 4.36875 8.38125 3.25 7 3.25Z" fill="#1B2B41" fill-opacity="0.72"/>
</svg>
