<svg width="35" height="51" viewBox="0 0 35 51" fill="none" xmlns="http://www.w3.org/2000/svg">
<path d="M17.0651 31.62C21.1121 31.62 24.3541 28.089 24.3541 23.72L24.3781 7.9C24.3781 3.526 21.1111 0 17.0641 0C13.0171 0 9.75011 3.531 9.75011 7.9V23.71C9.75111 28.089 13.0181 31.62 17.0651 31.62ZM29.9861 23.72C30.0252 25.4519 29.7215 27.1744 29.0923 28.7884C28.4632 30.4024 27.521 31.876 26.3201 33.1245C25.1192 34.373 23.6833 35.3717 22.0949 36.063C20.5066 36.7544 18.7972 37.1248 17.0651 37.153C15.3326 37.1248 13.6228 36.7542 12.0341 36.0626C10.4454 35.3709 9.00925 34.3718 7.80828 33.1227C6.60732 31.8737 5.66529 30.3995 5.03643 28.7849C4.40758 27.1703 4.10431 25.4473 4.14411 23.715H0.000108075C-0.0144417 27.9103 1.44051 31.9784 4.11241 35.2129C6.78431 38.4474 10.5045 40.6442 14.6271 41.422V50.065H19.5001V41.422C27.5001 40.157 34.1271 32.722 34.1271 23.715L29.9861 23.72Z" fill="white"/>
</svg>
