<svg width="46" height="57" viewBox="0 0 46 57" fill="none" xmlns="http://www.w3.org/2000/svg">
<path fill-rule="evenodd" clip-rule="evenodd" d="M35.2087 17.2702C34.6516 9.65293 29.4921 3.68555 23.2047 3.68555C16.9035 3.68555 11.7323 9.6864 11.1988 17.3371C8.03346 16.1617 8.91339 25.9427 11.7028 23.1214C13.2382 29.1892 18.5532 33.5933 23.2047 33.5933C27.8563 33.5933 30.6969 31.3686 32.5551 28.4056C31.5728 28.8112 30.5472 29.1144 29.4823 29.3132C28.6122 30.8882 25.9331 32.225 23.0295 32.225C14.437 32.225 11.8032 20.0127 14.9528 13.1928C16.1496 15.4392 17.3425 16.6992 18.4291 17.3863C22.6299 20.0442 24.1594 15.5475 26.9843 14.628C28.2717 14.2087 29.878 14.5217 32.1929 16.5909C32.8386 19.9123 32.6319 23.4561 30.8504 26.6809C31.939 26.4053 32.9803 26.0116 33.9567 25.4957C34.378 24.6078 34.3799 24.3499 34.6476 23.3537C34.7697 23.4147 34.9528 23.5171 35.315 23.3537C35.1417 23.2159 35.0098 23.0269 34.939 22.8123C35.4508 22.6942 35.8327 22.2354 35.8327 21.6901V17.9907C35.8307 17.4552 35.4961 17.2879 35.2087 17.2702ZM0 56.0198C0.561024 46.1877 5.07283 36.9304 12.9488 32.1679C19.1476 38.155 27.8622 37.8735 34.1791 31.8372C42.2382 38.4858 45.687 46.4731 46 56.0198H0Z" fill="white"/>
<path d="M8.01379 10.8263C12.4764 -3.4198 33.9055 -3.42177 38.3701 10.8263H36.1457C31.8819 -0.509938 14.5 -0.507969 10.2362 10.8263H8.01379ZM20.6595 29.7857H25.4764C25.752 29.7857 25.9764 29.5613 25.9764 29.2856V28.9037C30.6595 29.0376 34.7874 27.4507 38.0059 24.1353H36.502C33.7185 26.738 30.004 27.9685 25.9744 27.8484V27.6437C25.9744 27.3661 25.75 27.1436 25.4744 27.1436H20.6575C20.3819 27.1436 20.1575 27.3661 20.1575 27.6437V29.2876C20.1595 29.5613 20.3858 29.7857 20.6595 29.7857ZM39.1221 23.6057H36.6083C36.1004 23.6057 35.6654 23.273 35.5138 22.8142C36.0256 22.6961 36.4075 22.2374 36.4075 21.692V13.3562C36.4075 12.8109 36.0256 12.3502 35.5138 12.232C35.6654 11.7733 36.1004 11.4406 36.6083 11.4406H39.1221C39.7559 11.4406 40.2756 11.9603 40.2756 12.5923V22.454C40.2756 23.0859 39.7559 23.6057 39.1221 23.6057Z" fill="white"/>
</svg>
