<svg width="16" height="13" viewBox="0 0 16 13" fill="none" xmlns="http://www.w3.org/2000/svg">
<path d="M9.5781 7.5263C8.06658 7.5263 6.84126 6.30097 6.84126 4.78945C6.84126 3.27794 8.06658 2.05261 9.5781 2.05261C11.0896 2.05261 12.3149 3.27794 12.3149 4.78945C12.3149 6.30097 11.0896 7.5263 9.5781 7.5263Z" fill="#1676F3"/>
<path d="M9.57807 8.89474C11.4049 8.89474 15.0518 9.81158 15.0518 11.6316V13H4.10439V11.6316C4.10439 9.81158 7.75123 8.89474 9.57807 8.89474ZM4.2686 2.29895L5.41807 3.45526C4.84334 4.26263 4.84334 5.30947 5.41807 6.11684L4.2686 7.27316C2.88649 5.89105 2.88649 3.80421 4.2686 2.29895ZM2.00386 0L3.11913 1.11526C1.22386 3.18158 1.22386 6.28789 3.11913 8.46368L2.00386 9.57895C-0.664558 6.91737 -0.6714 2.77105 2.00386 0Z" fill="#1676F3"/>
</svg>
