<svg width="16" height="14" viewBox="0 0 16 14" fill="#1676F3" xmlns="http://www.w3.org/2000/svg">
<path d="M2.4 3.88889H13.6C14.928 3.88889 16 4.93111 16 6.22222V10.8889H12.8V14H3.2V10.8889H0V6.22222C0 4.93111 1.072 3.88889 2.4 3.88889ZM4.8 12.4444H11.2V8.55556H4.8V12.4444ZM2.4 7C2.84 7 3.2 6.65 3.2 6.22222C3.2 5.79444 2.84 5.44444 2.4 5.44444C1.96 5.44444 1.6 5.79444 1.6 6.22222C1.6 6.65 1.96 7 2.4 7ZM3.2 0H12.8V3.11111H3.2V0Z" />
<path d="M6 9L6 12" stroke="#1676F3" stroke-width="0.5"/>
<path d="M7 9L7 12" stroke="#1676F3" stroke-width="0.5"/>
<path d="M8 9L8 12" stroke="#1676F3" stroke-width="0.5"/>
<path d="M9 9L9 12" stroke="#1676F3" stroke-width="0.5"/>
<path d="M10 9L10 12" stroke="#1676F3" stroke-width="0.5"/>
</svg>
