<svg width="22" height="20" viewBox="0 0 22 20" fill="none" xmlns="http://www.w3.org/2000/svg">
<path d="M11 0L0 2.22222V17.7778L11 20V0ZM13.2 2.22222V4.44444H15.4V6.66667H13.2V8.88889H15.4V11.1111H13.2V13.3333H15.4V15.5556H13.2V17.7778H20.9C21.5072 17.7778 22 17.28 22 16.6667V3.33333C22 2.72 21.5072 2.22222 20.9 2.22222H13.2ZM17.6 4.44444H19.8V6.66667H17.6V4.44444ZM2.39336 5.88542H4.34844L5.36465 8.34635C5.44715 8.54747 5.50925 8.78069 5.57305 9.04514H5.60098C5.63728 8.88625 5.71117 8.64349 5.82227 8.32682L6.95449 5.88542H8.7377L6.60859 9.96311L8.8 14.1146H6.89863L5.67402 11.4323C5.62782 11.3378 5.57303 11.1477 5.52793 10.8832H5.51074C5.48324 11.0099 5.42781 11.1995 5.34531 11.454L4.10996 14.1146H2.2L4.4666 9.99566L2.39336 5.88542ZM17.6 8.88889H19.8V11.1111H17.6V8.88889ZM17.6 13.3333H19.8V15.5556H17.6V13.3333Z" fill="#1B2B41" fill-opacity="0.72"/>
</svg>
