<svg width="14" height="19" viewBox="0 0 14 19" fill="none" xmlns="http://www.w3.org/2000/svg">
<path d="M12.25 6.33333H11.375V4.52381C11.375 2.02667 9.415 0 7 0C4.585 0 2.625 2.02667 2.625 4.52381V6.33333H1.75C0.7875 6.33333 0 7.14762 0 8.14286V17.1905C0 18.1857 0.7875 19 1.75 19H12.25C13.2125 19 14 18.1857 14 17.1905V8.14286C14 7.14762 13.2125 6.33333 12.25 6.33333ZM4.2875 4.52381C4.2875 2.97667 5.50375 1.71905 7 1.71905C8.49625 1.71905 9.7125 2.97667 9.7125 4.52381V6.33333H4.2875V4.52381Z" fill="white"/>
</svg>
