<?xml version="1.0" encoding="utf-8"?>
<!-- Generator: Adobe Illustrator 24.3.0, SVG Export Plug-In . SVG Version: 6.00 Build 0)  -->
<svg version="1.1" id="레이어_1" xmlns="http://www.w3.org/2000/svg" xmlns:xlink="http://www.w3.org/1999/xlink" x="0px"
	 y="0px" viewBox="0 0 14 19" style="enable-background:new 0 0 14 19;" xml:space="preserve">
<style type="text/css">
	.st0{fill:#1676F3;}
</style>
<path class="st0" d="M10.3,18.4c-0.9,0-1.7-0.3-2.5-0.7C4,15.6,0,9,0,4.7c0-2.1,1-3.1,1.8-3.5l1-0.5c0.5-0.3,1.1-0.3,1.6-0.2
	c0.5,0.1,1,0.5,1.3,0.9l1.1,1.9C7,3.7,7.1,4.2,7,4.7C6.9,5.1,6.7,5.6,6.3,5.9L5.6,6.2C5.4,6.3,5.3,6.4,5.3,6.6c0,0.1,0,0.3,0.1,0.4
	l3.2,5.2c0,0.1,0.1,0.1,0.1,0.2c0.1,0,0.1,0.1,0.2,0.1c0.1,0,0.1,0,0.2,0c0.1,0,0.1,0,0.2-0.1L9.9,12c0.5-0.2,1-0.2,1.5-0.1
	c0.5,0.2,0.9,0.5,1.2,0.9l1.1,1.9c0.3,0.5,0.4,1,0.2,1.5c-0.1,0.5-0.5,1-1,1.2L12,18C11.5,18.3,10.9,18.4,10.3,18.4z M3.8,1.9
	C3.7,1.9,3.6,2,3.5,2l-1,0.5c-0.6,0.4-1,1.1-1,2.2c0,3.7,3.7,9.8,7,11.7c1,0.6,1.9,0.6,2.6,0.3l1-0.5c0.1-0.1,0.2-0.2,0.2-0.3
	c0-0.1,0-0.3-0.1-0.4l-1.1-1.9c-0.1-0.1-0.2-0.2-0.3-0.2c-0.1,0-0.2,0-0.4,0l-0.5,0.3C9.6,13.9,9,14,8.4,13.9c-0.6-0.1-1-0.5-1.3-1
	L4,7.7c-0.3-0.5-0.4-1-0.2-1.6c0.1-0.5,0.5-1,1-1.2l0.6-0.3c0.1-0.1,0.1-0.2,0.1-0.3c0-0.1,0-0.2-0.1-0.3L4.3,2.2
	C4.2,2.1,4.2,2,4.1,2C4,2,3.9,1.9,3.8,1.9z"/>
</svg>
