<svg width="24" height="26" viewBox="0 0 24 26" fill="none" xmlns="http://www.w3.org/2000/svg">
<path d="M10.925 25.3333L9.70635 24.9475L10.9357 21.9694L16.8867 18.9919C18.9084 16.0103 21.4445 15.5215 21.553 15.5019L21.5735 15.4987C22.5049 15.3574 22.6811 15.125 22.6982 15.0991C22.7003 15.0982 22.702 15.0996 22.7035 15.1022L22.6946 15.0629C22.5211 14.3034 21.2393 14.1184 21.2265 14.1167L21.1758 14.1083C20.6634 14.0059 19.5567 14.3858 17.8879 15.2383C17.4969 15.438 17.4039 15.4853 17.2054 15.4853C16.9127 15.4853 16.6824 15.3777 16.0901 14.7395L15.8538 14.4848L20.6406 3.55989C20.6916 3.34543 20.6808 3.18331 20.61 3.12246C20.4728 3.00459 20.0754 2.98701 19.7291 3.02162L15.3505 11.8759L14.1465 11.4576L15.4428 8.31641C15.1467 7.91713 14.6345 7.97016 14.6099 7.97313L14.5563 7.97926L14.502 7.97739C14.4973 7.97725 14.4923 7.97726 14.4874 7.97726C14.0185 7.97726 13.7789 8.71371 13.7768 8.72123L13.7627 8.77071L12.8374 10.5644C12.7817 10.6799 12.7224 10.7952 12.6596 10.9088L11.4858 10.4281L11.6509 10.1084C12.0132 9.35455 12.2157 8.57398 12.2685 8.35696C12.2343 7.97215 11.8015 7.80948 11.7971 7.80778C11.4401 7.68225 11.2702 7.75101 11.2145 7.77371C10.969 7.87342 10.8174 8.15416 10.7795 8.25401L10.4131 9.23654C10.3567 9.44987 10.2709 9.6846 10.1476 9.94232L8.93398 9.54717L9.16254 8.9344C9.25326 8.55739 9.18781 8.3513 9.13306 8.28265L9.11639 8.27216L9.07135 8.22904C8.78187 7.95132 8.52124 7.82536 8.29672 7.85259C7.90617 7.90096 7.50087 8.38493 7.35362 8.6279L4.38292 16.2087C3.68556 17.8577 3.91057 19.2434 3.913 19.257L3.94069 19.4194L3.86553 19.5712L1.18607 24.9004L0 24.443L2.60866 19.2548C2.5578 18.7804 2.49235 17.4114 3.16249 15.8273L6.15621 8.18676L6.17467 8.154C6.24838 8.02365 6.92857 6.87585 8.11529 6.72905C8.54878 6.67557 9.19463 6.74281 9.88244 7.33173C10.0559 7.11926 10.3057 6.89585 10.6529 6.75118C10.9906 6.61047 11.5469 6.49716 12.2794 6.75488C12.5403 6.84651 12.9003 7.04835 13.1731 7.36678C13.4894 7.06693 13.9202 6.8428 14.4805 6.8428C14.4862 6.8428 14.4917 6.8428 14.4973 6.8428C14.9227 6.80805 15.6327 6.8956 16.1826 7.33658L18.8046 2.03496L19.115 1.96702C19.3811 1.90858 20.7481 1.65173 21.5176 2.31328C21.8083 2.56334 22.1095 3.03311 21.8939 3.85168L21.8675 3.92727L17.3715 14.1889C18.7887 13.4717 20.3553 12.7946 21.4413 12.9981C21.706 13.037 23.6056 13.366 23.9586 14.8143C24.0036 14.9581 24.0642 15.2934 23.822 15.6636C23.5121 16.1374 22.8347 16.4574 21.8087 16.6148C21.6632 16.6447 19.6173 17.1061 17.9198 19.6923L17.8322 19.8258L11.9917 22.7481L10.925 25.3333Z" fill="#1676F3"/>
<path d="M22.7501 0.952855C23.3349 1.18008 23.573 1.83072 23.2815 2.40645L21.2349 6.44777C20.9435 7.02336 20.2327 7.30577 19.6481 7.07868L17.3961 6.20436C16.8113 5.97714 16.5734 5.32654 16.8649 4.75081L18.9115 0.709309C19.2029 0.13386 19.9135 -0.148673 20.4983 0.0785562L22.7501 0.952855Z" fill="#1676F3"/>
</svg>
