<svg width="17" height="21" viewBox="0 0 17 21" fill="none" xmlns="http://www.w3.org/2000/svg">
<path d="M11.6875 0H2.125C0.95625 0 0 0.945 0 2.1V18.9C0 20.055 0.95625 21 2.125 21H14.875C16.0438 21 17 20.055 17 18.9V5.25L11.6875 0ZM2.125 18.9V2.1H10.625V6.3H14.875V18.9H2.125ZM12.75 8.4V13.65C12.75 15.9705 10.8481 17.85 8.5 17.85C6.15188 17.85 4.25 15.9705 4.25 13.65V6.825C4.25 5.2815 5.58875 4.053 7.1825 4.2105C8.56375 4.347 9.5625 5.5965 9.5625 6.972V13.65H7.4375V6.825C7.4375 6.531 7.20375 6.3 6.90625 6.3C6.60875 6.3 6.375 6.531 6.375 6.825V13.65C6.375 14.805 7.33125 15.75 8.5 15.75C9.66875 15.75 10.625 14.805 10.625 13.65V8.4H12.75Z" fill="#1676F3"/>
</svg>
