<svg width="84" height="84" viewBox="0 0 84 84" fill="none" xmlns="http://www.w3.org/2000/svg">
<path d="M42 0C18.816 0 0 18.816 0 42C0 65.184 18.816 84 42 84C65.184 84 84 65.184 84 42C84 18.816 65.184 0 42 0ZM42 12.6C48.972 12.6 54.6 18.228 54.6 25.2C54.6 32.172 48.972 37.8 42 37.8C35.028 37.8 29.4 32.172 29.4 25.2C29.4 18.228 35.028 12.6 42 12.6ZM42 72.24C31.5 72.24 22.218 66.864 16.8 58.716C16.926 50.358 33.6 45.78 42 45.78C50.358 45.78 67.074 50.358 67.2 58.716C61.782 66.864 52.5 72.24 42 72.24Z" fill="#A2A2A2"/>
</svg>
