<svg width="153" height="152" viewBox="0 0 153 152" fill="none" xmlns="http://www.w3.org/2000/svg">
<path d="M76 7C89.2514 7 102.205 10.9295 113.223 18.2915C124.241 25.6536 132.829 36.1176 137.9 48.3602C142.971 60.6029 144.298 74.0743 141.713 87.0711C139.127 100.068 132.746 112.006 123.376 121.376C114.006 130.746 102.068 137.127 89.0711 139.713C76.0743 142.298 62.6029 140.971 50.3602 135.9C38.1176 130.829 27.6536 122.241 20.2915 111.223C12.9295 100.205 9 87.2514 9 74C9 56.2305 16.0589 39.1888 28.6238 26.6238C41.1888 14.0589 58.2305 7 76 7V7Z" fill="#B21A15"/>
<path d="M32.4463 78.075L32.4535 83.2626C32.4636 84.8884 33.1145 86.4447 34.2648 87.5937C35.4151 88.7427 36.9721 89.3918 38.598 89.4001L48.9976 89.4253C50.453 89.4243 51.8603 88.9039 52.9661 87.9576C54.0719 87.0114 54.8036 85.7015 55.0296 84.2637L55.0264 81.1072C55.0292 79.4435 55.6926 77.849 56.8706 76.6742C58.0486 75.4994 59.6449 74.8403 61.3087 74.842L90.4831 74.9104C92.1508 74.9188 93.7479 75.5844 94.9279 76.7629C96.1079 77.9413 96.7756 79.5376 96.7861 81.2052L96.7902 84.3622C97.0215 85.8028 97.7561 87.1146 98.8634 88.0647C99.9706 89.0148 101.379 89.5415 102.838 89.5513L113.238 89.5765C114.86 89.5787 116.417 88.9364 117.566 87.791C118.715 86.6456 119.363 85.0907 119.366 83.4682L119.36 78.2789C119.324 52.3576 32.4135 51.2058 32.4463 78.075Z" fill="white"/>
<path d="M38.5537 89.3687L48.9188 89.3739C50.3726 89.3678 51.7768 88.8446 52.8802 87.8979C53.9836 86.9513 54.7142 85.6428 54.9411 84.2068L32.5403 84.2063C32.7678 85.64 33.4974 86.9463 34.5989 87.8919C35.7004 88.8375 37.1021 89.3609 38.5537 89.3687Z" fill="white"/>
<path d="M102.988 89.544L113.353 89.5492C114.806 89.5432 116.211 89.0199 117.314 88.0731C118.417 87.1263 119.147 85.8177 119.374 84.3817L96.9732 84.3812C97.2011 85.815 97.9309 87.1212 99.0324 88.0669C100.134 89.0125 101.536 89.536 102.988 89.544Z" fill="white"/>
</svg>
