<svg width="13" height="13" viewBox="0 0 13 13" fill="none" xmlns="http://www.w3.org/2000/svg">
<path d="M2.47888 5.35472C3.46496 7.29263 5.05363 8.87446 6.99155 9.86738L8.49805 8.36088C8.68294 8.17599 8.95685 8.11436 9.19652 8.19653C9.96347 8.4499 10.792 8.58685 11.6412 8.58685C12.0178 8.58685 12.3259 8.895 12.3259 9.27163V11.6615C12.3259 12.0381 12.0178 12.3463 11.6412 12.3463C5.21113 12.3463 0 7.13513 0 0.705099C0 0.328473 0.308148 0.0203247 0.684774 0.0203247H3.08148C3.45811 0.0203247 3.76626 0.328473 3.76626 0.705099C3.76626 1.56107 3.90321 2.3828 4.15658 3.14974C4.2319 3.38941 4.17712 3.65648 3.98539 3.84821L2.47888 5.35472Z" fill="#1676F3"/>
<path d="M6.67665 5.01922L7.16284 5.49857L11.5796 1.18449L11.5796 4.12217L12.2644 4.12217L12.2644 0.0135236L8.15576 0.0135232L8.15576 0.698298L10.9976 0.698298L6.67665 5.01922Z" fill="#1676F3"/>
</svg>
