<svg width="13" height="16" viewBox="0 0 13 16" fill="none" xmlns="http://www.w3.org/2000/svg">
<path d="M8.9375 0H1.625C0.73125 0 0 0.72 0 1.6V14.4C0 15.28 0.73125 16 1.625 16H11.375C12.2688 16 13 15.28 13 14.4V4L8.9375 0ZM1.625 14.4V1.6H8.125V4.8H11.375V14.4H1.625ZM9.75 6.4V10.4C9.75 12.168 8.29562 13.6 6.5 13.6C4.70437 13.6 3.25 12.168 3.25 10.4V5.2C3.25 4.024 4.27375 3.088 5.4925 3.208C6.54875 3.312 7.3125 4.264 7.3125 5.312V10.4H5.6875V5.2C5.6875 4.976 5.50875 4.8 5.28125 4.8C5.05375 4.8 4.875 4.976 4.875 5.2V10.4C4.875 11.28 5.60625 12 6.5 12C7.39375 12 8.125 11.28 8.125 10.4V6.4H9.75Z" fill="white"/>
</svg>
