<svg width="33" height="21" viewBox="0 0 33 21" fill="none" xmlns="http://www.w3.org/2000/svg">
<path d="M11.5 0L0 2.33333V18.6667L11.5 21V0ZM13.8 2.33333V4.66667H16.1V7H13.8V9.33333H16.1V11.6667H13.8V14H16.1V16.3333H13.8V18.6667H21.85C22.4848 18.6667 23 18.144 23 17.5V3.5C23 2.856 22.4848 2.33333 21.85 2.33333H13.8ZM18.4 4.66667H20.7V7H18.4V4.66667ZM2.50215 6.17969H4.54609L5.6085 8.76367C5.69475 8.97484 5.75967 9.21973 5.82637 9.4974H5.85557C5.89352 9.33056 5.97076 9.07566 6.08691 8.74316L7.27061 6.17969H9.13486L6.90898 10.4613L9.2 14.8203H7.21221L5.93193 12.0039C5.88363 11.9047 5.82635 11.7051 5.7792 11.4274H5.76123C5.73248 11.5604 5.67453 11.7595 5.58828 12.0267L4.29678 14.8203H2.3L4.66963 10.4954L2.50215 6.17969ZM18.4 9.33333H20.7V11.6667H18.4V9.33333ZM18.4 14H20.7V16.3333H18.4V14Z" fill="white"/>
<path d="M23.3333 19.1333V16.087C25.1419 16.1386 26.6734 16.4746 27.9813 17.1032C29.4046 17.7871 30.59 18.8303 31.5878 20.2831C31.7219 20.4782 31.9744 20.5526 32.1928 20.4613C32.4112 20.37 32.5357 20.1381 32.491 19.9056C32.0636 17.683 31.2034 15.4289 29.6743 13.6114C28.2101 11.8712 26.1505 10.5535 23.3333 10.0424V7C23.3333 6.79598 23.2094 6.61243 23.0201 6.53621C22.8309 6.45998 22.6143 6.50638 22.4729 6.65345L16.6396 12.7201C16.4535 12.9137 16.4535 13.2197 16.6396 13.4132L22.4729 19.4799C22.6143 19.6269 22.8309 19.6733 23.0201 19.5971C23.2094 19.5209 23.3333 19.3373 23.3333 19.1333Z" fill="white" stroke="#1676F3" stroke-linejoin="round"/>
</svg>
