<svg width="33" height="21" viewBox="0 0 33 21" fill="none" xmlns="http://www.w3.org/2000/svg">
<path d="M11.5 0L0 2.33333V18.6667L11.5 21V0ZM13.8 2.33333V4.66667H16.1V7H13.8V9.33333H16.1V11.6667H13.8V14H16.1V16.3333H13.8V18.6667H21.85C22.4848 18.6667 23 18.144 23 17.5V3.5C23 2.856 22.4848 2.33333 21.85 2.33333H13.8ZM18.4 4.66667H20.7V7H18.4V4.66667ZM2.50215 6.17969H4.54609L5.6085 8.76367C5.69475 8.97484 5.75967 9.21973 5.82637 9.4974H5.85557C5.89352 9.33056 5.97076 9.07566 6.08691 8.74316L7.27061 6.17969H9.13486L6.90898 10.4613L9.2 14.8203H7.21221L5.93193 12.0039C5.88363 11.9047 5.82635 11.7051 5.7792 11.4274H5.76123C5.73248 11.5604 5.67453 11.7595 5.58828 12.0267L4.29678 14.8203H2.3L4.66963 10.4954L2.50215 6.17969ZM18.4 9.33333H20.7V11.6667H18.4V9.33333ZM18.4 14H20.7V16.3333H18.4V14Z" fill="white"/>
<path d="M25.6667 19.1333V16.087C23.8581 16.1386 22.3266 16.4746 21.0187 17.1032C19.5954 17.7871 18.41 18.8303 17.4122 20.2831C17.2781 20.4782 17.0256 20.5526 16.8072 20.4613C16.5888 20.37 16.4643 20.1381 16.509 19.9056C16.9364 17.683 17.7966 15.4289 19.3257 13.6114C20.7899 11.8712 22.8495 10.5535 25.6667 10.0424V7C25.6667 6.79598 25.7906 6.61243 25.9799 6.53621C26.1691 6.45998 26.3857 6.50638 26.5271 6.65345L32.3604 12.7201C32.5465 12.9137 32.5465 13.2197 32.3604 13.4132L26.5271 19.4799C26.3857 19.6269 26.1691 19.6733 25.9799 19.5971C25.7906 19.5209 25.6667 19.3373 25.6667 19.1333Z" fill="white" stroke="#1676F3" stroke-linejoin="round"/>
</svg>
