<svg width="45" height="41" viewBox="0 0 45 41" fill="none" xmlns="http://www.w3.org/2000/svg">
<path d="M22.3875 29.7003C26.3639 29.7003 29.5875 26.4767 29.5875 22.5003C29.5875 18.5238 26.3639 15.3003 22.3875 15.3003C18.411 15.3003 15.1875 18.5238 15.1875 22.5003C15.1875 26.4767 18.411 29.7003 22.3875 29.7003Z" fill="#EDEDED"/>
<path d="M15.75 0L11.6325 4.5H4.5C2.025 4.5 0 6.525 0 9V36C0 38.475 2.025 40.5 4.5 40.5H40.5C42.975 40.5 45 38.475 45 36V9C45 6.525 42.975 4.5 40.5 4.5H33.3675L29.25 0H15.75ZM22.5 33.75C16.29 33.75 11.25 28.71 11.25 22.5C11.25 16.29 16.29 11.25 22.5 11.25C28.71 11.25 33.75 16.29 33.75 22.5C33.75 28.71 28.71 33.75 22.5 33.75Z" fill="#EDEDED"/>
</svg>
