<svg width="28" height="26" viewBox="0 0 28 26" fill="none" xmlns="http://www.w3.org/2000/svg">
<path fill-rule="evenodd" clip-rule="evenodd" d="M3.50192 21.0817H12.0124V21.9406H3.50192V21.0817ZM3.50192 18.7141H12.0124V19.5729H3.50192V18.7141ZM3.50192 16.4166H12.0124V17.2754H3.50192V16.4166ZM19.1888 20.811L13.1433 21.9406L14.3118 16.1058L23.1212 7.36699L28 12.0722L19.1888 20.811ZM16.1447 16.7006L23.7687 9.13814L23.1554 8.54497L15.5315 16.1075L16.1447 16.7006ZM0.717467 25.6667H20.265H20.9842V24.9649V20.5838L19.5458 22.0174V24.2598H1.43664V10.3562C4.22964 10.3562 7.02263 10.3562 9.81392 10.3562C10.1436 10.3562 10.4101 10.0956 10.4101 9.77308C10.4101 6.98268 10.4118 4.19395 10.4135 1.4069H19.5458V9.37708L20.9842 7.94345V0.703448V0H20.265H9.22116L0 9.18994V24.9649V25.6667H0.717467Z" fill="white"/>
</svg>
