<?xml version="1.0" encoding="utf-8"?>
<!-- Generator: Adobe Illustrator 24.3.0, SVG Export Plug-In . SVG Version: 6.00 Build 0)  -->
<svg version="1.1" id="레이어_1" xmlns="http://www.w3.org/2000/svg" xmlns:xlink="http://www.w3.org/1999/xlink" x="0px"
	 y="0px" viewBox="0 0 141 63" style="enable-background:new 0 0 141 63;" xml:space="preserve">
<style type="text/css">
	.st0{fill:#C4C4C4;}
	.st1{fill:#F1F1F1;}
</style>
<path class="st0" d="M141,53.9c0,3.4-2.4,6.1-5.4,6.1H5.4c-3,0-5.4-2.7-5.4-6.1V6.1C0,2.7,2.4,0,5.4,0h130.3c3,0,5.4,2.7,5.4,6.1
	V53.9z"/>
<rect x="18" y="56" class="st0" width="105" height="7"/>
<path class="st1" d="M137,50.7c0,2.9-2.2,5.3-5,5.3H10c-2.8,0-5-2.4-5-5.3V9.3C5,6.4,7.2,4,10,4h122c2.8,0,5,2.4,5,5.3V50.7z"/>
</svg>
