<svg width="29" height="33" viewBox="0 0 29 33" fill="none" xmlns="http://www.w3.org/2000/svg">
<path d="M25.1928 3.88839H18.6112C17.9499 2.01552 16.2179 0.659302 14.171 0.659302C12.1241 0.659302 10.392 2.01552 9.73074 3.88839H3.14911C1.4171 3.88839 0 5.34148 0 7.11748V29.7211C0 31.4971 1.4171 32.9502 3.14911 32.9502H25.1928C26.9249 32.9502 28.342 31.4971 28.342 29.7211V7.11748C28.342 5.34148 26.9249 3.88839 25.1928 3.88839ZM14.171 3.88839C15.037 3.88839 15.7455 4.61494 15.7455 5.50293C15.7455 6.39093 15.037 7.11748 14.171 7.11748C13.305 7.11748 12.5964 6.39093 12.5964 5.50293C12.5964 4.61494 13.305 3.88839 14.171 3.88839ZM17.3201 26.492H6.29821V23.2629H17.3201V26.492ZM22.0437 20.0338H6.29821V16.8047H22.0437V20.0338ZM22.0437 13.5757H6.29821V10.3466H22.0437V13.5757Z" fill="white"/>
</svg>
