<svg width="25" height="21" viewBox="0 0 25 21" fill="none" xmlns="http://www.w3.org/2000/svg">
<path d="M24.9888 6.49462C24.8975 4.76307 24.1742 3.13707 22.9523 1.91605C21.716 0.680417 20.1031 0 18.4109 0C15.8989 0 14.0616 2.0322 13.0744 3.12402C12.8666 3.35384 12.6355 3.60953 12.5099 3.71132C12.4038 3.61495 12.2176 3.40002 12.0497 3.20629C11.0793 2.0857 9.27293 0 6.58936 0C4.89722 0 3.28451 0.680417 2.04815 1.91605C0.826201 3.13705 0.102893 4.76307 0.0114686 6.49462C-0.0465666 7.5952 0.115243 8.61796 0.506322 9.62123L0.577391 9.80655L3.94046 9.80228H3.95154C4.28727 9.80228 4.60842 9.91646 4.81072 10.1126L7.16002 12.391L8.85749 7.32574C8.99521 6.91489 9.3505 6.64521 9.76378 6.63937L9.78158 6.63897C10.1842 6.63897 10.5394 6.89799 10.6865 7.29872L13.0371 13.7111L15.0316 7.34378C15.1606 6.93198 15.509 6.65554 15.9191 6.63947C16.3343 6.62257 16.6965 6.86879 16.8575 7.27202L17.9999 10.1286L19.4907 8.0341C19.7055 7.73295 20.0668 7.53847 20.434 7.53847H24.9793L24.9918 7.27173C25.0036 7.01342 25.0027 6.75691 24.9888 6.49462Z" fill="#1676F3"/>
<path d="M18.5914 12.4991C18.3782 12.7979 18.017 12.9651 17.6652 12.9218C17.3092 12.8781 17.0021 12.6381 16.8639 12.2923L16.0584 10.2787L14.0265 16.7657C13.8957 17.1834 13.5424 17.4602 13.1282 17.4703L13.1026 17.4708C12.6913 17.4708 12.3432 17.2179 12.1941 16.8108L9.81386 10.3178L8.48729 14.2757C8.37488 14.6115 8.10898 14.8612 7.77623 14.9436C7.44534 15.0258 7.09149 14.927 6.84084 14.6836L3.7151 11.6502L1.54418 11.6551L1.92589 12.1243C4.19155 14.9088 10.8325 20.5488 12.5113 20.5488C13.7124 20.5488 17.0616 17.8083 18.0594 16.9684C20.5859 14.8419 22.7486 12.6504 23.5691 11.3855C23.9194 10.8457 24.1932 10.3304 24.4065 9.827L24.5764 9.41782H20.7865L18.5914 12.4991Z" fill="#1676F3"/>
</svg>
