<svg width="25" height="21" viewBox="0 0 25 21" fill="none" xmlns="http://www.w3.org/2000/svg">
<path d="M24.9888 6.75146C24.8975 5.01991 24.1742 3.39391 22.9523 2.17288C21.716 0.937253 20.1031 0.256836 18.4109 0.256836C15.8989 0.256836 14.0616 2.28903 13.0744 3.38086C12.8666 3.61068 12.6355 3.86637 12.5099 3.96816C12.4038 3.87179 12.2176 3.65686 12.0497 3.46313C11.0793 2.34253 9.27293 0.256836 6.58936 0.256836C4.89722 0.256836 3.28451 0.937253 2.04815 2.17288C0.826201 3.39388 0.102893 5.01991 0.0114686 6.75146C-0.0465666 7.85204 0.115243 8.87479 0.506322 9.87807L0.577391 10.0634L3.94046 10.0591H3.95154C4.28727 10.0591 4.60842 10.1733 4.81072 10.3695L7.16002 12.6478L8.85749 7.58257C8.99521 7.17173 9.3505 6.90205 9.76378 6.8962L9.78158 6.8958C10.1842 6.8958 10.5394 7.15483 10.6865 7.55555L13.0371 13.9679L15.0316 7.60062C15.1606 7.18881 15.509 6.91238 15.9191 6.89631C16.3343 6.87941 16.6965 7.12562 16.8575 7.52886L17.9999 10.3854L19.4907 8.29094C19.7055 7.98978 20.0668 7.79531 20.434 7.79531H24.9793L24.9918 7.52857C25.0036 7.27026 25.0027 7.01374 24.9888 6.75146Z" fill="white"/>
<path d="M18.5914 12.7559C18.3782 13.0548 18.017 13.2219 17.6652 13.1786C17.3092 13.1349 17.0021 12.8949 16.8639 12.5491L16.0584 10.5356L14.0265 17.0225C13.8957 17.4402 13.5424 17.717 13.1282 17.7271L13.1026 17.7277C12.6913 17.7277 12.3432 17.4748 12.1941 17.0677L9.81386 10.5746L8.48729 14.5325C8.37488 14.8683 8.10898 15.1181 7.77623 15.2005C7.44534 15.2826 7.09149 15.1839 6.84084 14.9404L3.7151 11.9071L1.54418 11.912L1.92589 12.3811C4.19155 15.1656 10.8325 20.8056 12.5113 20.8056C13.7124 20.8056 17.0616 18.0652 18.0594 17.2252C20.5859 15.0988 22.7486 12.9072 23.5691 11.6423C23.9194 11.1025 24.1932 10.5872 24.4065 10.0838L24.5764 9.67465H20.7865L18.5914 12.7559Z" fill="white"/>
</svg>
