<svg width="23" height="24" viewBox="0 0 23 24" fill="none" xmlns="http://www.w3.org/2000/svg">
<path d="M3.60279 21.5C3.19212 21.5 2.78187 21.3436 2.46951 21.0316C2.16672 20.7287 2 20.3256 2 19.8982C2 19.4701 2.16715 19.067 2.46951 18.7648L4.27646 16.9574C4.4335 16.8003 4.71198 16.8003 4.86935 16.9574L6.54291 18.6314C6.70673 18.7952 6.70673 19.0605 6.54291 19.2244L4.73608 21.0317C4.42361 21.3436 4.01304 21.5 3.60279 21.5ZM3.0624 20.4387C3.36046 20.7368 3.84513 20.7368 4.14319 20.4387L5.65348 18.9278L4.57269 17.8469L3.0624 19.3576C2.91773 19.5019 2.83824 19.6935 2.83824 19.8981C2.83824 20.1022 2.91816 20.2945 3.0624 20.4387Z" fill="#1676F3"/>
<path d="M5.40952 18.5102C5.30218 18.5102 5.19494 18.4692 5.11308 18.3872C4.94926 18.2235 4.94926 17.9582 5.11308 17.7943L14.6734 8.23341C14.8372 8.06968 15.1023 8.06968 15.2663 8.23341C15.43 8.39703 15.43 8.66252 15.2663 8.82625L5.70596 18.3872C5.62411 18.4692 5.51687 18.5102 5.40952 18.5102Z" fill="#1676F3"/>
<path d="M6.25249 19.3537C6.14525 19.3537 6.03791 19.3127 5.95594 19.2307L4.26957 17.5445C4.10597 17.3808 4.10597 17.1154 4.26957 16.9516L5.58012 15.6405C6.44653 14.7741 7.12482 13.7611 7.59573 12.6301L8.58037 10.2667C8.75343 9.8491 9.00482 9.47397 9.32632 9.15135L15.2409 3.2371C16.2233 2.2543 17.8216 2.2543 18.8044 3.2371L20.2618 4.69474C20.738 5.17065 21 5.80267 21 6.47684C21 7.14994 20.7379 7.78225 20.2618 8.25795L14.348 14.173C14.0273 14.4941 13.6523 14.7455 13.2326 14.9198L10.8695 15.905C9.7386 16.3759 8.72623 17.0539 7.85916 17.9203L6.54882 19.2306C6.46697 19.3127 6.35984 19.3537 6.25249 19.3537ZM5.1589 17.2482L6.25249 18.3414L7.26616 17.3276C8.2111 16.3827 9.31491 15.6439 10.5469 15.1304L12.9104 14.1452C13.2283 14.0133 13.5122 13.8235 13.7547 13.5801L19.6692 7.6651C19.9869 7.34733 20.1618 6.92553 20.1618 6.47695C20.1618 6.02728 19.9869 5.60546 19.6692 5.28779L18.2116 3.83017C17.5556 3.17504 16.4896 3.17504 15.8339 3.83017L9.91985 9.74443C9.67611 9.98841 9.48572 10.2726 9.35471 10.5888L8.36965 12.9531C7.85668 14.1854 7.11773 15.2895 6.17333 16.2337L5.1589 17.2482Z" fill="#1676F3"/>
<path d="M11.3228 10.1439C11.2155 10.1439 11.1083 10.103 11.0263 10.021L10.0384 9.03258C9.87468 8.86885 9.87468 8.60357 10.0384 8.43974C10.2021 8.27601 10.4673 8.27601 10.6312 8.43974L11.619 9.42813C11.7828 9.59197 11.7828 9.85725 11.619 10.021C11.5373 10.1031 11.4299 10.1439 11.3228 10.1439Z" fill="#1676F3"/>
<path d="M12.9533 8.51355C12.8462 8.51355 12.739 8.47255 12.657 8.39058L11.6687 7.40218C11.505 7.23845 11.505 6.97307 11.6687 6.80934C11.8323 6.6455 12.0977 6.6455 12.2616 6.80934L13.2499 7.79774C13.4135 7.96157 13.4135 8.22696 13.2499 8.39069C13.1679 8.47255 13.0606 8.51355 12.9533 8.51355Z" fill="#1676F3"/>
<path d="M14.5839 6.88302C14.4764 6.88302 14.3693 6.84203 14.2871 6.76006L13.2993 5.77166C13.1355 5.60782 13.1355 5.34255 13.2993 5.17882C13.4631 5.01498 13.7283 5.01498 13.8921 5.17882L14.8801 6.16732C15.0439 6.33094 15.0439 6.59633 14.8801 6.76016C14.7984 6.84213 14.6911 6.88302 14.5839 6.88302Z" fill="#1676F3"/>
</svg>
