<svg width="14" height="19" viewBox="0 0 14 19" fill="none" xmlns="http://www.w3.org/2000/svg">
<path d="M10.2679 18.4278C9.40001 18.404 8.55437 18.1615 7.81771 17.725C4.01874 15.6423 0.000509928 8.96914 0 4.74475C0 2.64273 0.964273 1.67308 1.77251 1.22943L2.74698 0.696652C3.2344 0.430303 3.81311 0.358331 4.3563 0.496505C4.89949 0.63468 5.36287 0.971735 5.6449 1.43382L6.76929 3.28398C7.02316 3.69921 7.11168 4.1872 7.01876 4.65919C6.92583 5.13117 6.65763 5.55578 6.26294 5.85581L5.56842 6.24765C5.43873 6.31943 5.34415 6.43697 5.30528 6.57467C5.26641 6.71238 5.28639 6.8591 5.36087 6.98288L8.5158 12.174C8.55309 12.2352 8.60275 12.2888 8.66193 12.3317C8.72112 12.3746 8.78865 12.4059 8.86064 12.424C8.93264 12.442 9.00767 12.4463 9.08142 12.4366C9.15518 12.427 9.22619 12.4036 9.29038 12.3677L9.8819 12.0437C10.3604 11.8392 10.9016 11.8096 11.4017 11.9605C11.9018 12.1115 12.3257 12.4324 12.5922 12.8618L13.7171 14.7124C13.9974 15.1754 14.0731 15.7251 13.9276 16.2411C13.782 16.757 13.427 17.1971 12.9404 17.4649L11.966 17.9977C11.4504 18.2821 10.8642 18.4306 10.2679 18.4278ZM3.8061 1.93365C3.71277 1.93343 3.62107 1.95684 3.54043 2.00146L2.56646 2.53422C1.91783 2.89021 1.58842 3.63271 1.58842 4.74233C1.58842 8.47173 5.26449 14.5802 8.61166 16.4149C9.62744 16.9718 10.4887 17.0634 11.1715 16.6904L12.146 16.1577C12.2674 16.0898 12.3559 15.9793 12.3925 15.85C12.429 15.7208 12.4106 15.583 12.3413 15.4665L11.2159 13.6159C11.1514 13.5128 11.0506 13.4347 10.9314 13.3954C10.8121 13.356 10.6821 13.3579 10.5642 13.4008L10.0848 13.675C9.5896 13.9459 9.00146 14.0193 8.44934 13.879C7.89723 13.7387 7.4262 13.3963 7.1395 12.9267L3.98458 7.73504C3.69943 7.26467 3.62245 6.70604 3.77054 6.1818C3.91863 5.65757 4.27969 5.21059 4.77445 4.93897L5.36546 4.61397C5.42822 4.53045 5.46426 4.4315 5.46923 4.329C5.47421 4.2265 5.44791 4.12481 5.39351 4.03616L4.2686 2.18599C4.22165 2.10904 4.15418 2.0452 4.07298 2.0009C3.99179 1.9566 3.89974 1.93341 3.8061 1.93365Z" fill="white"/>
</svg>
