<svg width="55" height="55" viewBox="0 0 55 55" fill="none" xmlns="http://www.w3.org/2000/svg">
<path d="M5.433 0H48.9C50.3396 0.00422102 51.7191 0.57798 52.737 1.59595C53.755 2.61392 54.3288 3.99338 54.333 5.433V38.033C54.3277 39.4719 53.7535 40.8504 52.7356 41.8675C51.7178 42.8846 50.3389 43.4578 48.9 43.462H10.866L0 54.328V5.433C0.00422102 3.99338 0.57798 2.61392 1.59595 1.59595C2.61392 0.57798 3.99338 0.00422102 5.433 0ZM10.866 32.6H43.466V27.164H10.866V32.6ZM10.866 24.451H43.466V19.015H10.866V24.451ZM10.866 16.302H43.466V10.866H10.866V16.302Z" fill="white"/>
</svg>
