<svg width="22" height="24" viewBox="0 0 22 24" fill="none" xmlns="http://www.w3.org/2000/svg">
<path d="M17.9961 5.52621L15.1062 8.16542C15.068 8.20023 15.068 8.25712 15.1062 8.29226L16.4629 9.53113C16.501 9.56606 16.5631 9.56606 16.6013 9.53113L19.4912 6.89151C19.5296 6.8568 19.5296 6.7999 19.4912 6.76498L18.1352 5.5261C18.0967 5.49118 18.0346 5.49118 17.9961 5.52621Z" fill="#1676F3"/>
<path d="M18.4586 9.10067C18.2673 8.92594 17.9571 8.92594 17.7658 9.10067L16.9479 9.84776C16.7181 10.0573 16.3456 10.0573 16.1161 9.84776L14.7594 8.60868C14.5299 8.39892 14.5299 8.05874 14.7594 7.84898L15.5774 7.10243C15.7685 6.9277 15.7685 6.64431 15.5774 6.46937L14.3801 5.37599C14.0631 5.0866 13.461 4.97594 13.0375 5.13383C11.0693 5.86861 5.8959 7.88001 4.37714 9.26709C1.2605 12.1128 1.20083 16.6726 4.24341 19.4511C7.28621 22.2299 12.2793 22.1753 15.3952 19.3295C16.9141 17.9422 19.1166 13.2177 19.9211 11.4203C20.094 11.0336 19.9728 10.4838 19.6558 10.1942L18.4586 9.10067ZM16.1688 13.0169L13.6354 15.3303C13.3814 15.5623 12.9697 15.5625 12.7163 15.3303L8.75567 11.7139C8.50179 11.4819 8.50179 11.1062 8.75567 10.8743L11.2893 8.5606C11.543 8.32865 11.9545 8.32865 12.2085 8.5606L16.1687 12.1773C16.4228 12.4094 16.4228 12.785 16.1688 13.0169Z" fill="#1676F3"/>
<path d="M18.1234 4.63216C18.5234 4.63216 18.8479 4.33594 18.8476 3.9705C18.8476 3.60506 18.1234 2.5 18.1234 2.5C18.1234 2.5 17.3983 3.60506 17.3983 3.9705C17.3983 4.33594 17.7231 4.63216 18.1234 4.63216Z" fill="#1676F3"/>
</svg>
