<svg width="33" height="34" viewBox="0 0 33 34" fill="none" xmlns="http://www.w3.org/2000/svg">
<path d="M22.7269 33.8022H14.0319C10.9569 33.8022 8.45561 30.7992 8.45561 27.1083V20.7595H10.5696V27.1083C10.5696 29.6334 12.1223 31.6879 14.0321 31.6879H22.7271C24.6367 31.6879 26.1897 29.6334 26.1897 27.1083V13.2111H28.3036V27.1083C28.3035 30.7992 25.8019 33.8022 22.7269 33.8022Z" fill="white"/>
<path d="M27.2469 15.4429C29.9275 15.4429 32.1006 13.2698 32.1006 10.5892C32.1006 7.90853 29.9275 5.73541 27.2469 5.73541C24.5662 5.73541 22.3931 7.90853 22.3931 10.5892C22.3931 13.2698 24.5662 15.4429 27.2469 15.4429Z" fill="white"/>
<path d="M9.51158 22.3681C4.5454 22.3681 0.505539 18.3279 0.505539 13.3613V2.99441C0.505539 2.68992 0.751704 2.44257 1.05696 2.44257H4.85545C5.16032 2.44257 5.40763 2.68992 5.40763 2.99441C5.40763 3.29928 5.16032 3.54657 4.85545 3.54657H1.60875V13.3611C1.60875 17.7193 5.15419 21.2647 9.51158 21.2647C13.8699 21.2647 17.4152 17.7193 17.4152 13.3611V3.54657H14.1698C13.865 3.54657 13.6176 3.29928 13.6176 2.99441C13.6176 2.68992 13.865 2.44257 14.1698 2.44257H17.967C18.2721 2.44257 18.5184 2.68992 18.5184 2.99441V13.3613C18.5186 18.3279 14.4783 22.3681 9.51158 22.3681Z" fill="white"/>
<path d="M27.2468 13.6048C28.9124 13.6048 30.2625 12.2547 30.2625 10.5891C30.2625 8.9236 28.9124 7.57343 27.2468 7.57343C25.5813 7.57343 24.2311 8.9236 24.2311 10.5891C24.2311 12.2547 25.5813 13.6048 27.2468 13.6048Z" fill="white"/>
<path d="M9.29384 22.871C4.09493 22.7543 0 18.3724 0 13.1723V12.5332C0 12.4069 0.102844 12.3041 0.22909 12.3041H1.88525C2.01188 12.3041 2.11376 12.4069 2.11376 12.5332V13.1932C2.11376 17.225 5.26856 20.6423 9.29845 20.7563C13.4751 20.8743 16.9104 17.5119 16.9104 13.3613V12.5332C16.9104 12.4069 17.0123 12.3041 17.1385 12.3041H18.7949C18.9211 12.3041 19.0242 12.4069 19.0242 12.5332V13.3613C19.0243 18.6792 14.6382 22.9909 9.29384 22.871Z" fill="white"/>
<path d="M5.40249 5.18686C4.79793 5.18686 4.30676 4.69586 4.30676 4.09034V1.8987C4.30676 1.29318 4.79793 0.802185 5.40249 0.802185C6.0082 0.802185 6.49899 1.29318 6.49899 1.8987V4.09034C6.49899 4.69586 6.00839 5.18686 5.40249 5.18686Z" fill="white"/>
<path d="M13.6215 5.18686C13.0158 5.18686 12.525 4.69586 12.525 4.09034V1.8987C12.525 1.29318 13.0158 0.802185 13.6215 0.802185C14.2268 0.802185 14.7172 1.29318 14.7172 1.8987V4.09034C14.7172 4.69586 14.227 5.18686 13.6215 5.18686Z" fill="white"/>
<path d="M27.2465 11.646C27.8302 11.646 28.3034 11.1728 28.3034 10.5891C28.3034 10.0053 27.8302 9.5321 27.2465 9.5321C26.6627 9.5321 26.1895 10.0053 26.1895 10.5891C26.1895 11.1728 26.6627 11.646 27.2465 11.646Z" fill="#E6E6E5"/>
</svg>
