<svg width="127" height="41" viewBox="0 0 127 41" fill="none" xmlns="http://www.w3.org/2000/svg">
<path d="M67.5644 35.2149C63.873 35.2149 60.87 32.2023 60.87 28.5004H55.3682C55.3682 35.3108 60.7728 40.8536 67.5644 40.8536V35.2149Z" fill="white"/>
<path d="M30.9048 6.34595C28.968 6.34595 27.3914 7.93571 27.3914 9.89113C27.3914 11.8458 28.968 13.436 30.9048 13.436C32.842 13.436 34.4186 11.8458 34.4186 9.89113C34.4186 7.93571 32.8423 6.34595 30.9048 6.34595Z" fill="white"/>
<path d="M74.3536 16.1803V18.1995C72.406 16.9036 70.0714 16.1461 67.5646 16.1461C60.7733 16.1461 55.2495 21.6883 55.2495 28.4999L55.2513 28.7517C55.1187 32.3378 52.1697 35.2144 48.5623 35.2144C44.8709 35.2144 41.8687 32.2016 41.8687 28.4991C41.8687 24.7966 44.8706 21.7834 48.5623 21.7834H49.4412V16.1453H48.5623C41.7715 16.1453 36.2471 21.6875 36.2471 28.4988C36.2471 35.3098 41.7717 40.8528 48.5623 40.8528C55.3525 40.8528 60.8766 35.3098 60.8766 28.4988L60.8745 28.2467C61.0074 24.6617 63.9582 21.784 67.5644 21.784C71.2573 21.784 74.2588 24.7963 74.2588 28.4996C74.2588 32.2013 71.2576 35.2147 67.5644 35.2147H67.4089V40.8534H67.5644C70.0716 40.8534 72.4058 40.0954 74.3533 38.7999L74.3419 40.9979H80.0753L80.0862 16.1797L74.3536 16.1803Z" fill="white"/>
<path d="M33.849 16.1888H28.1164V40.992H33.849V16.1888Z" fill="white"/>
<path d="M0.31604 29.9109V40.9893H5.95999V24.3035L0.31604 29.9109Z" fill="white"/>
<path d="M13.5928 16.5304H11.0648C7.67482 16.5304 5.65087 14.5002 5.65087 11.0984V0L0 5.66701V12.7515C0 19.2673 3.46636 22.4338 10.594 22.4338H13.4982C16.3218 22.4338 19.6188 24.042 19.6188 28.5744V41H25.3703V28.3468C25.3706 20.4247 21.4891 16.5304 13.5928 16.5304Z" fill="white"/>
<path d="M110.485 34.1653L125.603 24.2071C125.282 23.3118 124.853 22.4392 124.308 21.6117C120.563 15.9003 112.884 14.3122 107.193 18.0686C106.111 18.7826 105.179 19.64 104.402 20.5975C102.142 17.8801 98.7416 16.1458 94.9438 16.1458C92.489 16.1458 90.2017 16.8734 88.2795 18.1202V16.1877H82.5463V40.9947H88.2795V27.9341C88.567 24.4958 91.4441 21.7848 94.9438 21.7848C98.5965 21.7848 101.57 24.7343 101.633 28.3823C101.622 30.7403 102.277 33.126 103.662 35.2377C107.408 40.9485 115.087 42.5369 120.778 38.7794L117.677 34.0544C115.438 35.5315 112.636 35.481 110.485 34.1653ZM110.293 22.796C112.6 21.2738 115.504 21.3676 117.677 22.7997L107.374 29.6003C106.923 27.0319 107.986 24.3176 110.293 22.796Z" fill="white"/>
<path d="M123.486 30.4077C121.55 30.4077 119.973 31.9983 119.973 33.9534C119.973 35.9075 121.55 37.4978 123.486 37.4978C125.422 37.4978 127 35.9078 127 33.9534C127 31.9988 125.423 30.4077 123.486 30.4077Z" fill="white"/>
</svg>
