<svg width="516" height="167" viewBox="0 0 516 167" fill="none" xmlns="http://www.w3.org/2000/svg">
<path d="M274.446 142.818C259.459 142.818 247.267 130.623 247.267 115.639H224.928C224.928 143.208 246.872 165.641 274.447 165.641L274.446 142.818Z" fill="url(#paint0_linear_1209_4841)"/>
<path d="M125.601 25.965C117.736 25.965 111.335 32.401 111.335 40.314C111.335 48.228 117.736 54.663 125.601 54.663C133.467 54.663 139.868 48.228 139.868 40.314C139.868 32.401 133.467 25.965 125.601 25.965Z" fill="#38B549"/>
<path d="M302.01 65.772V73.946C294.102 68.7 284.625 65.634 274.447 65.634C246.872 65.634 224.444 88.067 224.444 115.638L224.451 116.658C223.914 131.173 211.94 142.818 197.293 142.818C182.306 142.818 170.116 130.623 170.116 115.639C170.116 100.652 182.305 88.456 197.293 88.456H200.861V65.634H197.293C169.721 65.634 147.29 88.067 147.29 115.638C147.29 143.207 169.721 165.64 197.293 165.64C224.863 165.64 247.293 143.206 247.293 115.638L247.285 114.616C247.823 100.104 259.804 88.456 274.447 88.456C289.44 88.456 301.627 100.651 301.627 115.639C301.627 130.623 289.44 142.818 274.447 142.818H273.814V165.641H274.447C284.626 165.641 294.102 162.574 302.01 157.329L301.964 166.227H325.242L325.288 65.771H302.01V65.772Z" fill="#0071BC"/>
<path d="M137.555 65.807H114.279V166.202H137.555V65.807Z" fill="#0071BC"/>
<path d="M1.40332 121.35V166.191H24.3193V98.652L1.40332 121.35Z" fill="#0071BC"/>
<path d="M55.3101 67.188H45.0451C31.2811 67.188 23.0641 58.971 23.0641 45.201V0.278015L0.121094 23.216V51.892C0.121094 78.267 14.1951 91.083 43.1361 91.083H54.9271C66.3921 91.083 79.7781 97.593 79.7781 115.937V166.234H103.131V115.017C103.13 82.952 87.3711 67.188 55.3101 67.188Z" fill="#0071BC"/>
<path d="M448.716 138.568L510.097 98.26C508.794 94.637 507.053 91.106 504.842 87.755C489.637 64.638 458.456 58.212 435.35 73.417C430.956 76.307 427.17 79.776 424.017 83.654C414.837 72.652 401.033 65.635 385.616 65.635C375.649 65.635 366.362 68.579 358.554 73.627V65.804H335.276V166.215H358.554V113.348C359.723 99.432 371.405 88.457 385.616 88.457C400.446 88.457 412.518 100.397 412.776 115.164C412.73 124.707 415.387 134.361 421.012 142.911C436.22 166.026 467.401 172.456 490.507 157.248L477.92 138.119C468.826 144.102 457.451 143.896 448.716 138.568ZM447.937 92.549C457.302 86.387 469.096 86.768 477.92 92.563L436.082 120.089C434.252 109.696 438.571 98.71 447.937 92.549Z" fill="#0071BC"/>
<path d="M501.502 123.36C493.641 123.36 487.236 129.798 487.236 137.712C487.236 145.622 493.64 152.058 501.502 152.058C509.366 152.058 515.771 145.622 515.771 137.712C515.771 129.799 509.366 123.36 501.502 123.36Z" fill="#38B549"/>
<defs>
<linearGradient id="paint0_linear_1209_4841" x1="220.583" y1="127.577" x2="280.38" y2="149.342" gradientUnits="userSpaceOnUse">
<stop offset="0.2577"/>
<stop offset="0.2872" stop-color="#000F36"/>
<stop offset="0.3314" stop-color="#002B56"/>
<stop offset="0.3798" stop-color="#003E6E"/>
<stop offset="0.4314" stop-color="#004C83"/>
<stop offset="0.4869" stop-color="#005895"/>
<stop offset="0.5477" stop-color="#0061A2"/>
<stop offset="0.6159" stop-color="#0068AD"/>
<stop offset="0.6957" stop-color="#006DB4"/>
<stop offset="0.7978" stop-color="#0070B9"/>
<stop offset="1" stop-color="#0071BC"/>
</linearGradient>
</defs>
</svg>
